solid CATIA STL
  facet normal  0.000000e+000  0.000000e+000  1.000000e+000
    outer loop
      vertex -5.532202e+001 -6.000000e+001  3.000000e+000
      vertex -1.867798e+001 -6.000000e+001  3.000000e+000
      vertex -5.532202e+001  6.000000e+001  3.000000e+000
    endloop
  endfacet
  facet normal  -0.000000e+000  0.000000e+000  1.000000e+000
    outer loop
      vertex -5.532202e+001  6.000000e+001  3.000000e+000
      vertex -1.867798e+001 -6.000000e+001  3.000000e+000
      vertex -1.867798e+001  6.000000e+001  3.000000e+000
    endloop
  endfacet
  facet normal  0.000000e+000  0.000000e+000 -1.000000e+000
    outer loop
      vertex -5.532202e+001 -6.000000e+001  0.000000e+000
      vertex -5.532202e+001  6.000000e+001  0.000000e+000
      vertex -1.867798e+001 -6.000000e+001  0.000000e+000
    endloop
  endfacet
  facet normal  0.000000e+000  0.000000e+000 -1.000000e+000
    outer loop
      vertex -1.867798e+001 -6.000000e+001  0.000000e+000
      vertex -5.532202e+001  6.000000e+001  0.000000e+000
      vertex -1.867798e+001  6.000000e+001  0.000000e+000
    endloop
  endfacet
  facet normal  1.000000e+000  -0.000000e+000  0.000000e+000
    outer loop
      vertex -1.867798e+001  6.000000e+001  3.000000e+000
      vertex -1.867798e+001 -6.000000e+001  3.000000e+000
      vertex -1.867798e+001  6.000000e+001  0.000000e+000
    endloop
  endfacet
  facet normal  1.000000e+000  0.000000e+000  0.000000e+000
    outer loop
      vertex -1.867798e+001  6.000000e+001  0.000000e+000
      vertex -1.867798e+001 -6.000000e+001  3.000000e+000
      vertex -1.867798e+001 -6.000000e+001  0.000000e+000
    endloop
  endfacet
  facet normal  0.000000e+000 -1.000000e+000  0.000000e+000
    outer loop
      vertex -5.532202e+001 -6.000000e+001  3.000000e+000
      vertex -5.532202e+001 -6.000000e+001  0.000000e+000
      vertex -1.867798e+001 -6.000000e+001  3.000000e+000
    endloop
  endfacet
  facet normal  0.000000e+000 -1.000000e+000  -0.000000e+000
    outer loop
      vertex -1.867798e+001 -6.000000e+001  3.000000e+000
      vertex -5.532202e+001 -6.000000e+001  0.000000e+000
      vertex -1.867798e+001 -6.000000e+001  0.000000e+000
    endloop
  endfacet
  facet normal -1.000000e+000  -0.000000e+000  0.000000e+000
    outer loop
      vertex -5.532202e+001 -6.000000e+001  3.000000e+000
      vertex -5.532202e+001  6.000000e+001  3.000000e+000
      vertex -5.532202e+001 -6.000000e+001  0.000000e+000
    endloop
  endfacet
  facet normal -1.000000e+000  0.000000e+000  0.000000e+000
    outer loop
      vertex -5.532202e+001 -6.000000e+001  0.000000e+000
      vertex -5.532202e+001  6.000000e+001  3.000000e+000
      vertex -5.532202e+001  6.000000e+001  0.000000e+000
    endloop
  endfacet
  facet normal  0.000000e+000  1.000000e+000  -0.000000e+000
    outer loop
      vertex -1.867798e+001  6.000000e+001  3.000000e+000
      vertex -1.867798e+001  6.000000e+001  0.000000e+000
      vertex -5.532202e+001  6.000000e+001  3.000000e+000
    endloop
  endfacet
  facet normal  0.000000e+000  1.000000e+000  0.000000e+000
    outer loop
      vertex -5.532202e+001  6.000000e+001  3.000000e+000
      vertex -1.867798e+001  6.000000e+001  0.000000e+000
      vertex -5.532202e+001  6.000000e+001  0.000000e+000
    endloop
  endfacet
endsolid CATIA STL
