solid CATIA STL
  facet normal  -0.000000e+000  0.000000e+000  1.000000e+000
    outer loop
      vertex  2.650000e+001  6.000000e+000  3.200000e+001
      vertex  2.150000e+001  2.000000e+000  3.200000e+001
      vertex  2.291421e+001  1.414214e+000  3.200000e+001
    endloop
  endfacet
  facet normal  0.000000e+000  0.000000e+000  1.000000e+000
    outer loop
      vertex -5.000000e-001  6.000000e+000  3.200000e+001
      vertex -5.000000e-001 -6.000000e+000  3.200000e+001
      vertex  4.585786e+000  1.414214e+000  3.200000e+001
    endloop
  endfacet
  facet normal  0.000000e+000  -0.000000e+000  1.000000e+000
    outer loop
      vertex -5.000000e-001  6.000000e+000  3.200000e+001
      vertex  4.585786e+000  1.414214e+000  3.200000e+001
      vertex  6.000000e+000  2.000000e+000  3.200000e+001
    endloop
  endfacet
  facet normal  0.000000e+000  -0.000000e+000  1.000000e+000
    outer loop
      vertex -5.000000e-001  6.000000e+000  3.200000e+001
      vertex  6.000000e+000  2.000000e+000  3.200000e+001
      vertex  2.150000e+001  2.000000e+000  3.200000e+001
    endloop
  endfacet
  facet normal  0.000000e+000  -0.000000e+000  1.000000e+000
    outer loop
      vertex -5.000000e-001  6.000000e+000  3.200000e+001
      vertex  2.150000e+001  2.000000e+000  3.200000e+001
      vertex  2.650000e+001  6.000000e+000  3.200000e+001
    endloop
  endfacet
  facet normal  0.000000e+000  0.000000e+000  1.000000e+000
    outer loop
      vertex -5.000000e-001 -6.000000e+000  3.200000e+001
      vertex  2.650000e+001 -6.000000e+000  3.200000e+001
      vertex  2.150000e+001 -2.000000e+000  3.200000e+001
    endloop
  endfacet
  facet normal  0.000000e+000  0.000000e+000  1.000000e+000
    outer loop
      vertex -5.000000e-001 -6.000000e+000  3.200000e+001
      vertex  2.150000e+001 -2.000000e+000  3.200000e+001
      vertex  6.000000e+000 -2.000000e+000  3.200000e+001
    endloop
  endfacet
  facet normal  0.000000e+000  0.000000e+000  1.000000e+000
    outer loop
      vertex -5.000000e-001 -6.000000e+000  3.200000e+001
      vertex  6.000000e+000 -2.000000e+000  3.200000e+001
      vertex  4.585786e+000 -1.414214e+000  3.200000e+001
    endloop
  endfacet
  facet normal  0.000000e+000  0.000000e+000  9.999999e-001
    outer loop
      vertex -5.000000e-001 -6.000000e+000  3.200000e+001
      vertex  4.585786e+000 -1.414214e+000  3.200000e+001
      vertex  4.000000e+000  2.449294e-016  3.200000e+001
    endloop
  endfacet
  facet normal  0.000000e+000  -0.000000e+000  1.000000e+000
    outer loop
      vertex -5.000000e-001 -6.000000e+000  3.200000e+001
      vertex  4.000000e+000  2.449294e-016  3.200000e+001
      vertex  4.585786e+000  1.414214e+000  3.200000e+001
    endloop
  endfacet
  facet normal  0.000000e+000  0.000000e+000  1.000000e+000
    outer loop
      vertex  2.650000e+001 -6.000000e+000  3.200000e+001
      vertex  2.650000e+001  6.000000e+000  3.200000e+001
      vertex  2.291421e+001  1.414214e+000  3.200000e+001
    endloop
  endfacet
  facet normal  0.000000e+000  0.000000e+000  1.000000e+000
    outer loop
      vertex  2.650000e+001 -6.000000e+000  3.200000e+001
      vertex  2.291421e+001  1.414214e+000  3.200000e+001
      vertex  2.350000e+001  0.000000e+000  3.200000e+001
    endloop
  endfacet
  facet normal  0.000000e+000  0.000000e+000  1.000000e+000
    outer loop
      vertex  2.650000e+001 -6.000000e+000  3.200000e+001
      vertex  2.350000e+001  0.000000e+000  3.200000e+001
      vertex  2.291421e+001 -1.414214e+000  3.200000e+001
    endloop
  endfacet
  facet normal  0.000000e+000  0.000000e+000  1.000000e+000
    outer loop
      vertex  2.650000e+001 -6.000000e+000  3.200000e+001
      vertex  2.291421e+001 -1.414214e+000  3.200000e+001
      vertex  2.150000e+001 -2.000000e+000  3.200000e+001
    endloop
  endfacet
  facet normal  -0.000000e+000  0.000000e+000  1.000000e+000
    outer loop
      vertex  2.150000e+001  2.000000e+000  3.200000e+001
      vertex  6.000000e+000  2.000000e+000  3.200000e+001
      vertex  2.008579e+001  1.414214e+000  3.200000e+001
    endloop
  endfacet
  facet normal  0.000000e+000  0.000000e+000  9.999999e-001
    outer loop
      vertex  2.008579e+001  1.414214e+000  3.200000e+001
      vertex  6.000000e+000  2.000000e+000  3.200000e+001
      vertex  7.414214e+000  1.414214e+000  3.200000e+001
    endloop
  endfacet
  facet normal  -0.000000e+000  0.000000e+000  1.000000e+000
    outer loop
      vertex  2.008579e+001  1.414214e+000  3.200000e+001
      vertex  7.414214e+000  1.414214e+000  3.200000e+001
      vertex  1.950000e+001  2.449294e-016  3.200000e+001
    endloop
  endfacet
  facet normal  0.000000e+000  0.000000e+000  1.000000e+000
    outer loop
      vertex  1.950000e+001  2.449294e-016  3.200000e+001
      vertex  7.414214e+000  1.414214e+000  3.200000e+001
      vertex  8.000000e+000  0.000000e+000  3.200000e+001
    endloop
  endfacet
  facet normal  -0.000000e+000  0.000000e+000  1.000000e+000
    outer loop
      vertex  1.950000e+001  2.449294e-016  3.200000e+001
      vertex  8.000000e+000  0.000000e+000  3.200000e+001
      vertex  2.008579e+001 -1.414214e+000  3.200000e+001
    endloop
  endfacet
  facet normal  0.000000e+000  0.000000e+000  1.000000e+000
    outer loop
      vertex  2.008579e+001 -1.414214e+000  3.200000e+001
      vertex  8.000000e+000  0.000000e+000  3.200000e+001
      vertex  7.414214e+000 -1.414214e+000  3.200000e+001
    endloop
  endfacet
  facet normal  -0.000000e+000  0.000000e+000  9.999999e-001
    outer loop
      vertex  2.008579e+001 -1.414214e+000  3.200000e+001
      vertex  7.414214e+000 -1.414214e+000  3.200000e+001
      vertex  2.150000e+001 -2.000000e+000  3.200000e+001
    endloop
  endfacet
  facet normal  0.000000e+000  0.000000e+000  1.000000e+000
    outer loop
      vertex  2.150000e+001 -2.000000e+000  3.200000e+001
      vertex  7.414214e+000 -1.414214e+000  3.200000e+001
      vertex  6.000000e+000 -2.000000e+000  3.200000e+001
    endloop
  endfacet
  facet normal  -0.000000e+000  0.000000e+000 -1.000000e+000
    outer loop
      vertex  2.500000e+000  6.000000e+000  3.000000e+001
      vertex  2.650000e+001  6.000000e+000  3.000000e+001
      vertex  2.150000e+001  2.000000e+000  3.000000e+001
    endloop
  endfacet
  facet normal  0.000000e+000  0.000000e+000 -1.000000e+000
    outer loop
      vertex  2.500000e+000  6.000000e+000  3.000000e+001
      vertex  2.150000e+001  2.000000e+000  3.000000e+001
      vertex  6.000000e+000  2.000000e+000  3.000000e+001
    endloop
  endfacet
  facet normal  -0.000000e+000  0.000000e+000 -9.999999e-001
    outer loop
      vertex  2.500000e+000  6.000000e+000  3.000000e+001
      vertex  6.000000e+000  2.000000e+000  3.000000e+001
      vertex  4.585786e+000  1.414214e+000  3.000000e+001
    endloop
  endfacet
  facet normal  -0.000000e+000  0.000000e+000 -1.000000e+000
    outer loop
      vertex  2.500000e+000  6.000000e+000  3.000000e+001
      vertex  4.585786e+000  1.414214e+000  3.000000e+001
      vertex  4.000000e+000 -1.531428e-015  3.000000e+001
    endloop
  endfacet
  facet normal  0.000000e+000  0.000000e+000 -1.000000e+000
    outer loop
      vertex  2.650000e+001 -6.000000e+000  3.000000e+001
      vertex  2.500000e+000 -6.000000e+000  3.000000e+001
      vertex  6.000000e+000 -2.000000e+000  3.000000e+001
    endloop
  endfacet
  facet normal  0.000000e+000  0.000000e+000 -1.000000e+000
    outer loop
      vertex  2.650000e+001 -6.000000e+000  3.000000e+001
      vertex  6.000000e+000 -2.000000e+000  3.000000e+001
      vertex  2.150000e+001 -2.000000e+000  3.000000e+001
    endloop
  endfacet
  facet normal  0.000000e+000  0.000000e+000 -1.000000e+000
    outer loop
      vertex  2.650000e+001 -6.000000e+000  3.000000e+001
      vertex  2.150000e+001 -2.000000e+000  3.000000e+001
      vertex  2.291421e+001 -1.414214e+000  3.000000e+001
    endloop
  endfacet
  facet normal  0.000000e+000  0.000000e+000 -1.000000e+000
    outer loop
      vertex  2.650000e+001 -6.000000e+000  3.000000e+001
      vertex  2.291421e+001 -1.414214e+000  3.000000e+001
      vertex  2.650000e+001  6.000000e+000  3.000000e+001
    endloop
  endfacet
  facet normal  0.000000e+000  0.000000e+000 -1.000000e+000
    outer loop
      vertex  2.500000e+000 -6.000000e+000  3.000000e+001
      vertex  2.500000e+000  6.000000e+000  3.000000e+001
      vertex  4.000000e+000 -1.531428e-015  3.000000e+001
    endloop
  endfacet
  facet normal  0.000000e+000  -0.000000e+000 -1.000000e+000
    outer loop
      vertex  2.500000e+000 -6.000000e+000  3.000000e+001
      vertex  4.000000e+000 -1.531428e-015  3.000000e+001
      vertex  4.585786e+000 -1.414214e+000  3.000000e+001
    endloop
  endfacet
  facet normal  0.000000e+000  -0.000000e+000 -1.000000e+000
    outer loop
      vertex  2.500000e+000 -6.000000e+000  3.000000e+001
      vertex  4.585786e+000 -1.414214e+000  3.000000e+001
      vertex  6.000000e+000 -2.000000e+000  3.000000e+001
    endloop
  endfacet
  facet normal  0.000000e+000  0.000000e+000 -1.000000e+000
    outer loop
      vertex  2.650000e+001  6.000000e+000  3.000000e+001
      vertex  2.291421e+001 -1.414214e+000  3.000000e+001
      vertex  2.350000e+001  0.000000e+000  3.000000e+001
    endloop
  endfacet
  facet normal  0.000000e+000  0.000000e+000 -1.000000e+000
    outer loop
      vertex  2.650000e+001  6.000000e+000  3.000000e+001
      vertex  2.350000e+001  0.000000e+000  3.000000e+001
      vertex  2.291421e+001  1.414214e+000  3.000000e+001
    endloop
  endfacet
  facet normal  0.000000e+000  0.000000e+000 -1.000000e+000
    outer loop
      vertex  2.650000e+001  6.000000e+000  3.000000e+001
      vertex  2.291421e+001  1.414214e+000  3.000000e+001
      vertex  2.150000e+001  2.000000e+000  3.000000e+001
    endloop
  endfacet
  facet normal  0.000000e+000  0.000000e+000 -1.000000e+000
    outer loop
      vertex  8.000000e+000  0.000000e+000  3.000000e+001
      vertex  2.008579e+001 -1.414214e+000  3.000000e+001
      vertex  7.414214e+000 -1.414214e+000  3.000000e+001
    endloop
  endfacet
  facet normal  0.000000e+000  0.000000e+000 -9.999999e-001
    outer loop
      vertex  7.414214e+000 -1.414214e+000  3.000000e+001
      vertex  2.008579e+001 -1.414214e+000  3.000000e+001
      vertex  2.150000e+001 -2.000000e+000  3.000000e+001
    endloop
  endfacet
  facet normal  0.000000e+000  0.000000e+000 -1.000000e+000
    outer loop
      vertex  7.414214e+000 -1.414214e+000  3.000000e+001
      vertex  2.150000e+001 -2.000000e+000  3.000000e+001
      vertex  6.000000e+000 -2.000000e+000  3.000000e+001
    endloop
  endfacet
  facet normal  0.000000e+000  0.000000e+000 -1.000000e+000
    outer loop
      vertex  2.008579e+001 -1.414214e+000  3.000000e+001
      vertex  8.000000e+000  0.000000e+000  3.000000e+001
      vertex  1.950000e+001 -1.531428e-015  3.000000e+001
    endloop
  endfacet
  facet normal  0.000000e+000  0.000000e+000 -1.000000e+000
    outer loop
      vertex  1.950000e+001 -1.531428e-015  3.000000e+001
      vertex  8.000000e+000  0.000000e+000  3.000000e+001
      vertex  7.414214e+000  1.414214e+000  3.000000e+001
    endloop
  endfacet
  facet normal  0.000000e+000  0.000000e+000 -1.000000e+000
    outer loop
      vertex  1.950000e+001 -1.531428e-015  3.000000e+001
      vertex  7.414214e+000  1.414214e+000  3.000000e+001
      vertex  2.008579e+001  1.414214e+000  3.000000e+001
    endloop
  endfacet
  facet normal  0.000000e+000  0.000000e+000 -9.999999e-001
    outer loop
      vertex  2.008579e+001  1.414214e+000  3.000000e+001
      vertex  7.414214e+000  1.414214e+000  3.000000e+001
      vertex  6.000000e+000  2.000000e+000  3.000000e+001
    endloop
  endfacet
  facet normal  0.000000e+000  0.000000e+000 -1.000000e+000
    outer loop
      vertex  2.008579e+001  1.414214e+000  3.000000e+001
      vertex  6.000000e+000  2.000000e+000  3.000000e+001
      vertex  2.150000e+001  2.000000e+000  3.000000e+001
    endloop
  endfacet
  facet normal  3.826834e-001 -9.238796e-001  0.000000e+000
    outer loop
      vertex  6.000000e+000  2.000000e+000  3.000000e+001
      vertex  4.585786e+000  1.414214e+000  3.200000e+001
      vertex  4.585786e+000  1.414214e+000  3.000000e+001
    endloop
  endfacet
  facet normal  9.238796e-001 -3.826834e-001  0.000000e+000
    outer loop
      vertex  4.585786e+000  1.414214e+000  3.000000e+001
      vertex  4.585786e+000  1.414214e+000  3.200000e+001
      vertex  4.000000e+000  2.449294e-016  3.200000e+001
    endloop
  endfacet
  facet normal  9.238796e-001 -3.826834e-001  3.398911e-016
    outer loop
      vertex  4.585786e+000  1.414214e+000  3.000000e+001
      vertex  4.000000e+000  2.449294e-016  3.200000e+001
      vertex  4.000000e+000 -1.531428e-015  3.000000e+001
    endloop
  endfacet
  facet normal  3.826834e-001 -9.238796e-001  0.000000e+000
    outer loop
      vertex  4.585786e+000  1.414214e+000  3.200000e+001
      vertex  6.000000e+000  2.000000e+000  3.000000e+001
      vertex  6.000000e+000  2.000000e+000  3.200000e+001
    endloop
  endfacet
  facet normal -3.826834e-001 -9.238796e-001  -0.000000e+000
    outer loop
      vertex  6.000000e+000  2.000000e+000  3.200000e+001
      vertex  6.000000e+000  2.000000e+000  3.000000e+001
      vertex  7.414214e+000  1.414214e+000  3.000000e+001
    endloop
  endfacet
  facet normal -3.826834e-001 -9.238796e-001  0.000000e+000
    outer loop
      vertex  6.000000e+000  2.000000e+000  3.200000e+001
      vertex  7.414214e+000  1.414214e+000  3.000000e+001
      vertex  7.414214e+000  1.414214e+000  3.200000e+001
    endloop
  endfacet
  facet normal -9.238796e-001 -3.826834e-001  -0.000000e+000
    outer loop
      vertex  7.414214e+000  1.414214e+000  3.200000e+001
      vertex  7.414214e+000  1.414214e+000  3.000000e+001
      vertex  8.000000e+000  0.000000e+000  3.000000e+001
    endloop
  endfacet
  facet normal -9.238796e-001 -3.826834e-001  0.000000e+000
    outer loop
      vertex  7.414214e+000  1.414214e+000  3.200000e+001
      vertex  8.000000e+000  0.000000e+000  3.000000e+001
      vertex  8.000000e+000  0.000000e+000  3.200000e+001
    endloop
  endfacet
  facet normal -3.826834e-001  9.238796e-001  0.000000e+000
    outer loop
      vertex  6.000000e+000 -2.000000e+000  3.000000e+001
      vertex  7.414214e+000 -1.414214e+000  3.200000e+001
      vertex  7.414214e+000 -1.414214e+000  3.000000e+001
    endloop
  endfacet
  facet normal -9.238796e-001  3.826834e-001  0.000000e+000
    outer loop
      vertex  7.414214e+000 -1.414214e+000  3.000000e+001
      vertex  7.414214e+000 -1.414214e+000  3.200000e+001
      vertex  8.000000e+000  0.000000e+000  3.200000e+001
    endloop
  endfacet
  facet normal -9.238796e-001  3.826834e-001  0.000000e+000
    outer loop
      vertex  7.414214e+000 -1.414214e+000  3.000000e+001
      vertex  8.000000e+000  0.000000e+000  3.200000e+001
      vertex  8.000000e+000  0.000000e+000  3.000000e+001
    endloop
  endfacet
  facet normal -3.826834e-001  9.238796e-001  0.000000e+000
    outer loop
      vertex  7.414214e+000 -1.414214e+000  3.200000e+001
      vertex  6.000000e+000 -2.000000e+000  3.000000e+001
      vertex  6.000000e+000 -2.000000e+000  3.200000e+001
    endloop
  endfacet
  facet normal  3.826834e-001  9.238796e-001  0.000000e+000
    outer loop
      vertex  6.000000e+000 -2.000000e+000  3.200000e+001
      vertex  6.000000e+000 -2.000000e+000  3.000000e+001
      vertex  4.585786e+000 -1.414214e+000  3.000000e+001
    endloop
  endfacet
  facet normal  3.826834e-001  9.238796e-001  -0.000000e+000
    outer loop
      vertex  6.000000e+000 -2.000000e+000  3.200000e+001
      vertex  4.585786e+000 -1.414214e+000  3.000000e+001
      vertex  4.585786e+000 -1.414214e+000  3.200000e+001
    endloop
  endfacet
  facet normal  9.238796e-001  3.826834e-001  0.000000e+000
    outer loop
      vertex  4.585786e+000 -1.414214e+000  3.200000e+001
      vertex  4.585786e+000 -1.414214e+000  3.000000e+001
      vertex  4.000000e+000 -1.531428e-015  3.000000e+001
    endloop
  endfacet
  facet normal  9.238796e-001  3.826834e-001 -3.398911e-016
    outer loop
      vertex  4.585786e+000 -1.414214e+000  3.200000e+001
      vertex  4.000000e+000 -1.531428e-015  3.000000e+001
      vertex  4.000000e+000  2.449294e-016  3.200000e+001
    endloop
  endfacet
  facet normal  3.826835e-001 -9.238795e-001  0.000000e+000
    outer loop
      vertex  2.150000e+001  2.000000e+000  3.000000e+001
      vertex  2.008579e+001  1.414214e+000  3.200000e+001
      vertex  2.008579e+001  1.414214e+000  3.000000e+001
    endloop
  endfacet
  facet normal  9.238794e-001 -3.826837e-001  0.000000e+000
    outer loop
      vertex  2.008579e+001  1.414214e+000  3.000000e+001
      vertex  2.008579e+001  1.414214e+000  3.200000e+001
      vertex  1.950000e+001  2.449294e-016  3.200000e+001
    endloop
  endfacet
  facet normal  9.238794e-001 -3.826837e-001  3.398914e-016
    outer loop
      vertex  2.008579e+001  1.414214e+000  3.000000e+001
      vertex  1.950000e+001  2.449294e-016  3.200000e+001
      vertex  1.950000e+001 -1.531428e-015  3.000000e+001
    endloop
  endfacet
  facet normal  3.826835e-001 -9.238795e-001  0.000000e+000
    outer loop
      vertex  2.008579e+001  1.414214e+000  3.200000e+001
      vertex  2.150000e+001  2.000000e+000  3.000000e+001
      vertex  2.150000e+001  2.000000e+000  3.200000e+001
    endloop
  endfacet
  facet normal -3.826835e-001 -9.238795e-001  -0.000000e+000
    outer loop
      vertex  2.150000e+001  2.000000e+000  3.200000e+001
      vertex  2.150000e+001  2.000000e+000  3.000000e+001
      vertex  2.291421e+001  1.414214e+000  3.000000e+001
    endloop
  endfacet
  facet normal -3.826835e-001 -9.238795e-001  0.000000e+000
    outer loop
      vertex  2.150000e+001  2.000000e+000  3.200000e+001
      vertex  2.291421e+001  1.414214e+000  3.000000e+001
      vertex  2.291421e+001  1.414214e+000  3.200000e+001
    endloop
  endfacet
  facet normal -9.238794e-001 -3.826837e-001  -0.000000e+000
    outer loop
      vertex  2.291421e+001  1.414214e+000  3.200000e+001
      vertex  2.291421e+001  1.414214e+000  3.000000e+001
      vertex  2.350000e+001  0.000000e+000  3.000000e+001
    endloop
  endfacet
  facet normal -9.238794e-001 -3.826837e-001  0.000000e+000
    outer loop
      vertex  2.291421e+001  1.414214e+000  3.200000e+001
      vertex  2.350000e+001  0.000000e+000  3.000000e+001
      vertex  2.350000e+001  0.000000e+000  3.200000e+001
    endloop
  endfacet
  facet normal -3.826835e-001  9.238795e-001  0.000000e+000
    outer loop
      vertex  2.150000e+001 -2.000000e+000  3.000000e+001
      vertex  2.291421e+001 -1.414214e+000  3.200000e+001
      vertex  2.291421e+001 -1.414214e+000  3.000000e+001
    endloop
  endfacet
  facet normal -9.238794e-001  3.826837e-001  0.000000e+000
    outer loop
      vertex  2.291421e+001 -1.414214e+000  3.000000e+001
      vertex  2.291421e+001 -1.414214e+000  3.200000e+001
      vertex  2.350000e+001  0.000000e+000  3.200000e+001
    endloop
  endfacet
  facet normal -9.238794e-001  3.826837e-001  0.000000e+000
    outer loop
      vertex  2.291421e+001 -1.414214e+000  3.000000e+001
      vertex  2.350000e+001  0.000000e+000  3.200000e+001
      vertex  2.350000e+001  0.000000e+000  3.000000e+001
    endloop
  endfacet
  facet normal -3.826835e-001  9.238795e-001  0.000000e+000
    outer loop
      vertex  2.291421e+001 -1.414214e+000  3.200000e+001
      vertex  2.150000e+001 -2.000000e+000  3.000000e+001
      vertex  2.150000e+001 -2.000000e+000  3.200000e+001
    endloop
  endfacet
  facet normal  3.826835e-001  9.238795e-001  0.000000e+000
    outer loop
      vertex  2.150000e+001 -2.000000e+000  3.200000e+001
      vertex  2.150000e+001 -2.000000e+000  3.000000e+001
      vertex  2.008579e+001 -1.414214e+000  3.000000e+001
    endloop
  endfacet
  facet normal  3.826835e-001  9.238795e-001  -0.000000e+000
    outer loop
      vertex  2.150000e+001 -2.000000e+000  3.200000e+001
      vertex  2.008579e+001 -1.414214e+000  3.000000e+001
      vertex  2.008579e+001 -1.414214e+000  3.200000e+001
    endloop
  endfacet
  facet normal  9.238794e-001  3.826837e-001  0.000000e+000
    outer loop
      vertex  2.008579e+001 -1.414214e+000  3.200000e+001
      vertex  2.008579e+001 -1.414214e+000  3.000000e+001
      vertex  1.950000e+001 -1.531428e-015  3.000000e+001
    endloop
  endfacet
  facet normal  9.238794e-001  3.826837e-001 -3.398914e-016
    outer loop
      vertex  2.008579e+001 -1.414214e+000  3.200000e+001
      vertex  1.950000e+001 -1.531428e-015  3.000000e+001
      vertex  1.950000e+001  2.449294e-016  3.200000e+001
    endloop
  endfacet
  facet normal  0.000000e+000 -1.000000e+000  0.000000e+000
    outer loop
      vertex -1.500000e+000 -6.000000e+000  3.100000e+001
      vertex -1.500000e+000 -6.000000e+000  1.600000e+001
      vertex  1.500000e+000 -6.000000e+000  1.600000e+001
    endloop
  endfacet
  facet normal  0.000000e+000 -1.000000e+000  0.000000e+000
    outer loop
      vertex -1.500000e+000 -6.000000e+000  3.100000e+001
      vertex  1.500000e+000 -6.000000e+000  1.600000e+001
      vertex  1.500000e+000 -6.000000e+000  2.900000e+001
    endloop
  endfacet
  facet normal  0.000000e+000 -1.000000e+000  0.000000e+000
    outer loop
      vertex -1.500000e+000 -6.000000e+000  3.100000e+001
      vertex  1.500000e+000 -6.000000e+000  2.900000e+001
      vertex  1.792893e+000 -6.000000e+000  2.970711e+001
    endloop
  endfacet
  facet normal  0.000000e+000 -1.000000e+000  0.000000e+000
    outer loop
      vertex -1.500000e+000 -6.000000e+000  3.100000e+001
      vertex  1.792893e+000 -6.000000e+000  2.970711e+001
      vertex  2.500000e+000 -6.000000e+000  3.000000e+001
    endloop
  endfacet
  facet normal  0.000000e+000 -1.000000e+000  0.000000e+000
    outer loop
      vertex -1.500000e+000 -6.000000e+000  3.100000e+001
      vertex  2.500000e+000 -6.000000e+000  3.000000e+001
      vertex  2.650000e+001 -6.000000e+000  3.000000e+001
    endloop
  endfacet
  facet normal  0.000000e+000 -1.000000e+000  0.000000e+000
    outer loop
      vertex -1.500000e+000 -6.000000e+000  3.100000e+001
      vertex  2.650000e+001 -6.000000e+000  3.000000e+001
      vertex  2.650000e+001 -6.000000e+000  3.200000e+001
    endloop
  endfacet
  facet normal  -0.000000e+000 -1.000000e+000  0.000000e+000
    outer loop
      vertex -1.500000e+000 -6.000000e+000  3.100000e+001
      vertex  2.650000e+001 -6.000000e+000  3.200000e+001
      vertex -5.000000e-001 -6.000000e+000  3.200000e+001
    endloop
  endfacet
  facet normal  0.000000e+000 -1.000000e+000  0.000000e+000
    outer loop
      vertex -1.500000e+000 -6.000000e+000  3.100000e+001
      vertex -5.000000e-001 -6.000000e+000  3.200000e+001
      vertex -1.207107e+000 -6.000000e+000  3.170711e+001
    endloop
  endfacet
  facet normal  0.000000e+000 -1.000000e+000  0.000000e+000
    outer loop
      vertex -3.000000e+000 -6.000000e+000  0.000000e+000
      vertex  3.000000e+000 -6.000000e+000  0.000000e+000
      vertex -3.000000e+000 -6.000000e+000  1.406351e+001
    endloop
  endfacet
  facet normal  0.000000e+000 -1.000000e+000  0.000000e+000
    outer loop
      vertex -3.000000e+000 -6.000000e+000  1.406351e+001
      vertex  3.000000e+000 -6.000000e+000  0.000000e+000
      vertex  3.000000e+000 -6.000000e+000  1.406351e+001
    endloop
  endfacet
  facet normal  0.000000e+000 -1.000000e+000  0.000000e+000
    outer loop
      vertex -3.000000e+000 -6.000000e+000  1.406351e+001
      vertex  3.000000e+000 -6.000000e+000  1.406351e+001
      vertex -2.790569e+000 -6.000000e+000  1.467588e+001
    endloop
  endfacet
  facet normal  0.000000e+000 -1.000000e+000  0.000000e+000
    outer loop
      vertex -2.790569e+000 -6.000000e+000  1.467588e+001
      vertex  3.000000e+000 -6.000000e+000  1.406351e+001
      vertex  2.790569e+000 -6.000000e+000  1.467588e+001
    endloop
  endfacet
  facet normal  0.000000e+000 -1.000000e+000  0.000000e+000
    outer loop
      vertex -2.790569e+000 -6.000000e+000  1.467588e+001
      vertex  2.790569e+000 -6.000000e+000  1.467588e+001
      vertex -2.250000e+000 -6.000000e+000  1.503175e+001
    endloop
  endfacet
  facet normal  0.000000e+000 -1.000000e+000  0.000000e+000
    outer loop
      vertex -2.250000e+000 -6.000000e+000  1.503175e+001
      vertex  2.790569e+000 -6.000000e+000  1.467588e+001
      vertex  2.250000e+000 -6.000000e+000  1.503175e+001
    endloop
  endfacet
  facet normal  0.000000e+000 -9.999999e-001  0.000000e+000
    outer loop
      vertex -2.250000e+000 -6.000000e+000  1.503175e+001
      vertex  2.250000e+000 -6.000000e+000  1.503175e+001
      vertex -1.709431e+000 -6.000000e+000  1.538763e+001
    endloop
  endfacet
  facet normal  0.000000e+000 -1.000000e+000  0.000000e+000
    outer loop
      vertex -1.709431e+000 -6.000000e+000  1.538763e+001
      vertex  2.250000e+000 -6.000000e+000  1.503175e+001
      vertex  1.709431e+000 -6.000000e+000  1.538763e+001
    endloop
  endfacet
  facet normal  0.000000e+000 -1.000000e+000  0.000000e+000
    outer loop
      vertex -1.709431e+000 -6.000000e+000  1.538763e+001
      vertex  1.709431e+000 -6.000000e+000  1.538763e+001
      vertex -1.500000e+000 -6.000000e+000  1.600000e+001
    endloop
  endfacet
  facet normal  0.000000e+000 -1.000000e+000  0.000000e+000
    outer loop
      vertex -1.500000e+000 -6.000000e+000  1.600000e+001
      vertex  1.709431e+000 -6.000000e+000  1.538763e+001
      vertex  1.500000e+000 -6.000000e+000  1.600000e+001
    endloop
  endfacet
  facet normal  0.000000e+000  1.000000e+000  -0.000000e+000
    outer loop
      vertex  2.500000e+000  6.000000e+000  3.000000e+001
      vertex  1.792893e+000  6.000000e+000  2.970711e+001
      vertex -1.500000e+000  6.000000e+000  3.100000e+001
    endloop
  endfacet
  facet normal  0.000000e+000  1.000000e+000  -0.000000e+000
    outer loop
      vertex  2.650000e+001  6.000000e+000  3.000000e+001
      vertex  2.500000e+000  6.000000e+000  3.000000e+001
      vertex -1.500000e+000  6.000000e+000  3.100000e+001
    endloop
  endfacet
  facet normal  -0.000000e+000  1.000000e+000  0.000000e+000
    outer loop
      vertex  2.650000e+001  6.000000e+000  3.000000e+001
      vertex -1.500000e+000  6.000000e+000  3.100000e+001
      vertex -1.207107e+000  6.000000e+000  3.170711e+001
    endloop
  endfacet
  facet normal  -0.000000e+000  1.000000e+000  0.000000e+000
    outer loop
      vertex  2.650000e+001  6.000000e+000  3.000000e+001
      vertex -1.207107e+000  6.000000e+000  3.170711e+001
      vertex -5.000000e-001  6.000000e+000  3.200000e+001
    endloop
  endfacet
  facet normal  -0.000000e+000  1.000000e+000  0.000000e+000
    outer loop
      vertex  2.650000e+001  6.000000e+000  3.000000e+001
      vertex -5.000000e-001  6.000000e+000  3.200000e+001
      vertex  2.650000e+001  6.000000e+000  3.200000e+001
    endloop
  endfacet
  facet normal  0.000000e+000  1.000000e+000  0.000000e+000
    outer loop
      vertex  3.000000e+000  6.000000e+000  0.000000e+000
      vertex -3.000000e+000  6.000000e+000  0.000000e+000
      vertex  3.000000e+000  6.000000e+000  1.406351e+001
    endloop
  endfacet
  facet normal  0.000000e+000  1.000000e+000  0.000000e+000
    outer loop
      vertex  3.000000e+000  6.000000e+000  1.406351e+001
      vertex -3.000000e+000  6.000000e+000  0.000000e+000
      vertex -3.000000e+000  6.000000e+000  1.406351e+001
    endloop
  endfacet
  facet normal  0.000000e+000  1.000000e+000  0.000000e+000
    outer loop
      vertex  3.000000e+000  6.000000e+000  1.406351e+001
      vertex -3.000000e+000  6.000000e+000  1.406351e+001
      vertex  2.790569e+000  6.000000e+000  1.467588e+001
    endloop
  endfacet
  facet normal  0.000000e+000  1.000000e+000  0.000000e+000
    outer loop
      vertex  2.790569e+000  6.000000e+000  1.467588e+001
      vertex -3.000000e+000  6.000000e+000  1.406351e+001
      vertex -2.790569e+000  6.000000e+000  1.467588e+001
    endloop
  endfacet
  facet normal  0.000000e+000  1.000000e+000  0.000000e+000
    outer loop
      vertex  2.790569e+000  6.000000e+000  1.467588e+001
      vertex -2.790569e+000  6.000000e+000  1.467588e+001
      vertex  2.250000e+000  6.000000e+000  1.503175e+001
    endloop
  endfacet
  facet normal  0.000000e+000  1.000000e+000  0.000000e+000
    outer loop
      vertex  2.250000e+000  6.000000e+000  1.503175e+001
      vertex -2.790569e+000  6.000000e+000  1.467588e+001
      vertex -2.250000e+000  6.000000e+000  1.503175e+001
    endloop
  endfacet
  facet normal  0.000000e+000  9.999999e-001  0.000000e+000
    outer loop
      vertex  2.250000e+000  6.000000e+000  1.503175e+001
      vertex -2.250000e+000  6.000000e+000  1.503175e+001
      vertex  1.709431e+000  6.000000e+000  1.538763e+001
    endloop
  endfacet
  facet normal  0.000000e+000  1.000000e+000  0.000000e+000
    outer loop
      vertex  1.709431e+000  6.000000e+000  1.538763e+001
      vertex -2.250000e+000  6.000000e+000  1.503175e+001
      vertex -1.709431e+000  6.000000e+000  1.538763e+001
    endloop
  endfacet
  facet normal  0.000000e+000  1.000000e+000  0.000000e+000
    outer loop
      vertex  1.709431e+000  6.000000e+000  1.538763e+001
      vertex -1.709431e+000  6.000000e+000  1.538763e+001
      vertex  1.500000e+000  6.000000e+000  1.600000e+001
    endloop
  endfacet
  facet normal  0.000000e+000  1.000000e+000  0.000000e+000
    outer loop
      vertex  1.500000e+000  6.000000e+000  1.600000e+001
      vertex -1.709431e+000  6.000000e+000  1.538763e+001
      vertex -1.500000e+000  6.000000e+000  1.600000e+001
    endloop
  endfacet
  facet normal  0.000000e+000  1.000000e+000  0.000000e+000
    outer loop
      vertex  1.500000e+000  6.000000e+000  1.600000e+001
      vertex -1.500000e+000  6.000000e+000  1.600000e+001
      vertex  1.500000e+000  6.000000e+000  2.900000e+001
    endloop
  endfacet
  facet normal  0.000000e+000  1.000000e+000  0.000000e+000
    outer loop
      vertex  1.500000e+000  6.000000e+000  2.900000e+001
      vertex -1.500000e+000  6.000000e+000  1.600000e+001
      vertex -1.500000e+000  6.000000e+000  3.100000e+001
    endloop
  endfacet
  facet normal  0.000000e+000  1.000000e+000  0.000000e+000
    outer loop
      vertex  1.500000e+000  6.000000e+000  2.900000e+001
      vertex -1.500000e+000  6.000000e+000  3.100000e+001
      vertex  1.792893e+000  6.000000e+000  2.970711e+001
    endloop
  endfacet
  facet normal -1.000000e+000  0.000000e+000  0.000000e+000
    outer loop
      vertex -1.500000e+000  6.000000e+000  1.600000e+001
      vertex -1.500000e+000 -6.000000e+000  1.600000e+001
      vertex -1.500000e+000  6.000000e+000  3.100000e+001
    endloop
  endfacet
  facet normal -1.000000e+000  -0.000000e+000  0.000000e+000
    outer loop
      vertex -1.500000e+000  6.000000e+000  3.100000e+001
      vertex -1.500000e+000 -6.000000e+000  1.600000e+001
      vertex -1.500000e+000 -6.000000e+000  3.100000e+001
    endloop
  endfacet
  facet normal -3.826826e-001  0.000000e+000  9.238799e-001
    outer loop
      vertex -5.000000e-001 -6.000000e+000  3.200000e+001
      vertex -5.000000e-001  6.000000e+000  3.200000e+001
      vertex -1.207107e+000 -6.000000e+000  3.170711e+001
    endloop
  endfacet
  facet normal -3.826826e-001  0.000000e+000  9.238799e-001
    outer loop
      vertex -1.207107e+000 -6.000000e+000  3.170711e+001
      vertex -5.000000e-001  6.000000e+000  3.200000e+001
      vertex -1.207107e+000  6.000000e+000  3.170711e+001
    endloop
  endfacet
  facet normal -9.238797e-001  0.000000e+000  3.826830e-001
    outer loop
      vertex -1.207107e+000 -6.000000e+000  3.170711e+001
      vertex -1.207107e+000  6.000000e+000  3.170711e+001
      vertex -1.500000e+000 -6.000000e+000  3.100000e+001
    endloop
  endfacet
  facet normal -9.238797e-001  0.000000e+000  3.826830e-001
    outer loop
      vertex -1.500000e+000 -6.000000e+000  3.100000e+001
      vertex -1.207107e+000  6.000000e+000  3.170711e+001
      vertex -1.500000e+000  6.000000e+000  3.100000e+001
    endloop
  endfacet
  facet normal  1.000000e+000  0.000000e+000  0.000000e+000
    outer loop
      vertex  1.500000e+000  6.000000e+000  1.600000e+001
      vertex  1.500000e+000  6.000000e+000  2.900000e+001
      vertex  1.500000e+000 -6.000000e+000  1.600000e+001
    endloop
  endfacet
  facet normal  1.000000e+000  0.000000e+000  0.000000e+000
    outer loop
      vertex  1.500000e+000 -6.000000e+000  1.600000e+001
      vertex  1.500000e+000  6.000000e+000  2.900000e+001
      vertex  1.500000e+000 -6.000000e+000  2.900000e+001
    endloop
  endfacet
  facet normal  9.238797e-001  0.000000e+000 -3.826830e-001
    outer loop
      vertex  1.500000e+000  6.000000e+000  2.900000e+001
      vertex  1.792893e+000  6.000000e+000  2.970711e+001
      vertex  1.500000e+000 -6.000000e+000  2.900000e+001
    endloop
  endfacet
  facet normal  9.238797e-001  0.000000e+000 -3.826830e-001
    outer loop
      vertex  1.500000e+000 -6.000000e+000  2.900000e+001
      vertex  1.792893e+000  6.000000e+000  2.970711e+001
      vertex  1.792893e+000 -6.000000e+000  2.970711e+001
    endloop
  endfacet
  facet normal  3.826826e-001  0.000000e+000 -9.238799e-001
    outer loop
      vertex  1.792893e+000  6.000000e+000  2.970711e+001
      vertex  2.500000e+000  6.000000e+000  3.000000e+001
      vertex  1.792893e+000 -6.000000e+000  2.970711e+001
    endloop
  endfacet
  facet normal  3.826826e-001  0.000000e+000 -9.238799e-001
    outer loop
      vertex  1.792893e+000 -6.000000e+000  2.970711e+001
      vertex  2.500000e+000  6.000000e+000  3.000000e+001
      vertex  2.500000e+000 -6.000000e+000  3.000000e+001
    endloop
  endfacet
  facet normal -5.498703e-001  0.000000e+000  8.352501e-001
    outer loop
      vertex -2.250000e+000 -6.000000e+000  1.503175e+001
      vertex -1.709431e+000 -6.000000e+000  1.538763e+001
      vertex -2.250000e+000  6.000000e+000  1.503175e+001
    endloop
  endfacet
  facet normal -5.498703e-001  0.000000e+000  8.352501e-001
    outer loop
      vertex -2.250000e+000  6.000000e+000  1.503175e+001
      vertex -1.709431e+000 -6.000000e+000  1.538763e+001
      vertex -1.709431e+000  6.000000e+000  1.538763e+001
    endloop
  endfacet
  facet normal -9.461948e-001  0.000000e+000  3.235974e-001
    outer loop
      vertex -1.709431e+000 -6.000000e+000  1.538763e+001
      vertex -1.500000e+000 -6.000000e+000  1.600000e+001
      vertex -1.709431e+000  6.000000e+000  1.538763e+001
    endloop
  endfacet
  facet normal -9.461948e-001  0.000000e+000  3.235974e-001
    outer loop
      vertex -1.709431e+000  6.000000e+000  1.538763e+001
      vertex -1.500000e+000 -6.000000e+000  1.600000e+001
      vertex -1.500000e+000  6.000000e+000  1.600000e+001
    endloop
  endfacet
  facet normal  1.000000e+000  0.000000e+000  0.000000e+000
    outer loop
      vertex  2.650000e+001 -6.000000e+000  3.200000e+001
      vertex  2.650000e+001 -6.000000e+000  3.000000e+001
      vertex  2.650000e+001  6.000000e+000  3.200000e+001
    endloop
  endfacet
  facet normal  1.000000e+000  0.000000e+000  0.000000e+000
    outer loop
      vertex  2.650000e+001  6.000000e+000  3.200000e+001
      vertex  2.650000e+001 -6.000000e+000  3.000000e+001
      vertex  2.650000e+001  6.000000e+000  3.000000e+001
    endloop
  endfacet
  facet normal  9.461948e-001  0.000000e+000  3.235974e-001
    outer loop
      vertex  1.500000e+000 -6.000000e+000  1.600000e+001
      vertex  1.709431e+000 -6.000000e+000  1.538763e+001
      vertex  1.500000e+000  6.000000e+000  1.600000e+001
    endloop
  endfacet
  facet normal  9.461948e-001  0.000000e+000  3.235974e-001
    outer loop
      vertex  1.500000e+000  6.000000e+000  1.600000e+001
      vertex  1.709431e+000 -6.000000e+000  1.538763e+001
      vertex  1.709431e+000  6.000000e+000  1.538763e+001
    endloop
  endfacet
  facet normal  5.498703e-001  0.000000e+000  8.352501e-001
    outer loop
      vertex  1.709431e+000 -6.000000e+000  1.538763e+001
      vertex  2.250000e+000 -6.000000e+000  1.503175e+001
      vertex  1.709431e+000  6.000000e+000  1.538763e+001
    endloop
  endfacet
  facet normal  5.498703e-001  0.000000e+000  8.352501e-001
    outer loop
      vertex  1.709431e+000  6.000000e+000  1.538763e+001
      vertex  2.250000e+000 -6.000000e+000  1.503175e+001
      vertex  2.250000e+000  6.000000e+000  1.503175e+001
    endloop
  endfacet
  facet normal  1.000000e+000  0.000000e+000  0.000000e+000
    outer loop
      vertex  3.000000e+000 -6.000000e+000  0.000000e+000
      vertex  3.000000e+000  6.000000e+000  0.000000e+000
      vertex  3.000000e+000 -6.000000e+000  1.406351e+001
    endloop
  endfacet
  facet normal  1.000000e+000  -0.000000e+000  0.000000e+000
    outer loop
      vertex  3.000000e+000 -6.000000e+000  1.406351e+001
      vertex  3.000000e+000  6.000000e+000  0.000000e+000
      vertex  3.000000e+000  6.000000e+000  1.406351e+001
    endloop
  endfacet
  facet normal  5.498713e-001  -0.000000e+000  8.352494e-001
    outer loop
      vertex  2.250000e+000  6.000000e+000  1.503175e+001
      vertex  2.250000e+000 -6.000000e+000  1.503175e+001
      vertex  2.790569e+000  6.000000e+000  1.467588e+001
    endloop
  endfacet
  facet normal  5.498713e-001  0.000000e+000  8.352494e-001
    outer loop
      vertex  2.790569e+000  6.000000e+000  1.467588e+001
      vertex  2.250000e+000 -6.000000e+000  1.503175e+001
      vertex  2.790569e+000 -6.000000e+000  1.467588e+001
    endloop
  endfacet
  facet normal  9.461948e-001  -0.000000e+000  3.235976e-001
    outer loop
      vertex  2.790569e+000  6.000000e+000  1.467588e+001
      vertex  2.790569e+000 -6.000000e+000  1.467588e+001
      vertex  3.000000e+000  6.000000e+000  1.406351e+001
    endloop
  endfacet
  facet normal  9.461948e-001  0.000000e+000  3.235976e-001
    outer loop
      vertex  3.000000e+000  6.000000e+000  1.406351e+001
      vertex  2.790569e+000 -6.000000e+000  1.467588e+001
      vertex  3.000000e+000 -6.000000e+000  1.406351e+001
    endloop
  endfacet
  facet normal -1.000000e+000  0.000000e+000  0.000000e+000
    outer loop
      vertex -3.000000e+000 -6.000000e+000  0.000000e+000
      vertex -3.000000e+000 -6.000000e+000  1.406351e+001
      vertex -3.000000e+000  6.000000e+000  0.000000e+000
    endloop
  endfacet
  facet normal -1.000000e+000  0.000000e+000  0.000000e+000
    outer loop
      vertex -3.000000e+000  6.000000e+000  0.000000e+000
      vertex -3.000000e+000 -6.000000e+000  1.406351e+001
      vertex -3.000000e+000  6.000000e+000  1.406351e+001
    endloop
  endfacet
  facet normal -5.498713e-001  0.000000e+000  8.352494e-001
    outer loop
      vertex -2.250000e+000 -6.000000e+000  1.503175e+001
      vertex -2.250000e+000  6.000000e+000  1.503175e+001
      vertex -2.790569e+000 -6.000000e+000  1.467588e+001
    endloop
  endfacet
  facet normal -5.498713e-001  0.000000e+000  8.352494e-001
    outer loop
      vertex -2.790569e+000 -6.000000e+000  1.467588e+001
      vertex -2.250000e+000  6.000000e+000  1.503175e+001
      vertex -2.790569e+000  6.000000e+000  1.467588e+001
    endloop
  endfacet
  facet normal -9.461948e-001  0.000000e+000  3.235976e-001
    outer loop
      vertex -2.790569e+000 -6.000000e+000  1.467588e+001
      vertex -2.790569e+000  6.000000e+000  1.467588e+001
      vertex -3.000000e+000 -6.000000e+000  1.406351e+001
    endloop
  endfacet
  facet normal -9.461948e-001  0.000000e+000  3.235976e-001
    outer loop
      vertex -3.000000e+000 -6.000000e+000  1.406351e+001
      vertex -2.790569e+000  6.000000e+000  1.467588e+001
      vertex -3.000000e+000  6.000000e+000  1.406351e+001
    endloop
  endfacet
  facet normal  0.000000e+000  0.000000e+000 -1.000000e+000
    outer loop
      vertex  3.000000e+000  6.000000e+000  0.000000e+000
      vertex  9.000000e-001  3.200000e+000  0.000000e+000
      vertex -3.000000e+000  6.000000e+000  0.000000e+000
    endloop
  endfacet
  facet normal  0.000000e+000  0.000000e+000 -1.000000e+000
    outer loop
      vertex -3.000000e+000  6.000000e+000  0.000000e+000
      vertex  9.000000e-001  3.200000e+000  0.000000e+000
      vertex -9.000000e-001  3.200000e+000  0.000000e+000
    endloop
  endfacet
  facet normal  -0.000000e+000  0.000000e+000 -1.000000e+000
    outer loop
      vertex -3.000000e+000  6.000000e+000  0.000000e+000
      vertex -9.000000e-001  3.200000e+000  0.000000e+000
      vertex -3.000000e+000 -6.000000e+000  0.000000e+000
    endloop
  endfacet
  facet normal  0.000000e+000  0.000000e+000 -1.000000e+000
    outer loop
      vertex -3.000000e+000 -6.000000e+000  0.000000e+000
      vertex -9.000000e-001  3.200000e+000  0.000000e+000
      vertex -9.000000e-001 -3.200000e+000  0.000000e+000
    endloop
  endfacet
  facet normal  0.000000e+000  -0.000000e+000 -1.000000e+000
    outer loop
      vertex -3.000000e+000 -6.000000e+000  0.000000e+000
      vertex -9.000000e-001 -3.200000e+000  0.000000e+000
      vertex  3.000000e+000 -6.000000e+000  0.000000e+000
    endloop
  endfacet
  facet normal  0.000000e+000  0.000000e+000 -1.000000e+000
    outer loop
      vertex  3.000000e+000 -6.000000e+000  0.000000e+000
      vertex -9.000000e-001 -3.200000e+000  0.000000e+000
      vertex  9.000000e-001 -3.200000e+000  0.000000e+000
    endloop
  endfacet
  facet normal  0.000000e+000  0.000000e+000 -1.000000e+000
    outer loop
      vertex  3.000000e+000 -6.000000e+000  0.000000e+000
      vertex  9.000000e-001 -3.200000e+000  0.000000e+000
      vertex  3.000000e+000  6.000000e+000  0.000000e+000
    endloop
  endfacet
  facet normal  0.000000e+000  0.000000e+000 -1.000000e+000
    outer loop
      vertex  3.000000e+000  6.000000e+000  0.000000e+000
      vertex  9.000000e-001 -3.200000e+000  0.000000e+000
      vertex  9.000000e-001  3.200000e+000  0.000000e+000
    endloop
  endfacet
  facet normal  1.000000e+000  0.000000e+000  0.000000e+000
    outer loop
      vertex -9.000000e-001 -3.200000e+000  0.000000e+000
      vertex -9.000000e-001  3.200000e+000  0.000000e+000
      vertex -9.000000e-001 -2.191124e+000  1.119742e+001
    endloop
  endfacet
  facet normal  9.999999e-001  -0.000000e+000  0.000000e+000
    outer loop
      vertex -9.000000e-001 -2.191124e+000  1.119742e+001
      vertex -9.000000e-001  3.200000e+000  0.000000e+000
      vertex -9.000000e-001  2.191124e+000  1.119742e+001
    endloop
  endfacet
  facet normal  1.000000e+000  0.000000e+000  0.000000e+000
    outer loop
      vertex -9.000000e-001 -2.191124e+000  1.119742e+001
      vertex -9.000000e-001  2.191124e+000  1.119742e+001
      vertex -9.000000e-001 -1.484197e+000  1.262393e+001
    endloop
  endfacet
  facet normal  1.000000e+000  -0.000000e+000  0.000000e+000
    outer loop
      vertex -9.000000e-001 -1.484197e+000  1.262393e+001
      vertex -9.000000e-001  2.191124e+000  1.119742e+001
      vertex -9.000000e-001  1.484197e+000  1.262393e+001
    endloop
  endfacet
  facet normal  1.000000e+000  0.000000e+000  0.000000e+000
    outer loop
      vertex -9.000000e-001 -1.484197e+000  1.262393e+001
      vertex -9.000000e-001  1.484197e+000  1.262393e+001
      vertex -9.000000e-001 -1.330783e-015  1.320000e+001
    endloop
  endfacet
  facet normal -1.000000e+000  0.000000e+000  0.000000e+000
    outer loop
      vertex  9.000000e-001 -1.330783e-015  1.320000e+001
      vertex  9.000000e-001  1.484197e+000  1.262393e+001
      vertex  9.000000e-001 -1.484197e+000  1.262393e+001
    endloop
  endfacet
  facet normal -1.000000e+000  0.000000e+000  0.000000e+000
    outer loop
      vertex  9.000000e-001 -1.484197e+000  1.262393e+001
      vertex  9.000000e-001  1.484197e+000  1.262393e+001
      vertex  9.000000e-001  2.191124e+000  1.119742e+001
    endloop
  endfacet
  facet normal -1.000000e+000  0.000000e+000  0.000000e+000
    outer loop
      vertex  9.000000e-001 -1.484197e+000  1.262393e+001
      vertex  9.000000e-001  2.191124e+000  1.119742e+001
      vertex  9.000000e-001 -2.191124e+000  1.119742e+001
    endloop
  endfacet
  facet normal -9.999999e-001  0.000000e+000  0.000000e+000
    outer loop
      vertex  9.000000e-001 -2.191124e+000  1.119742e+001
      vertex  9.000000e-001  2.191124e+000  1.119742e+001
      vertex  9.000000e-001  3.200000e+000  0.000000e+000
    endloop
  endfacet
  facet normal -1.000000e+000  0.000000e+000  0.000000e+000
    outer loop
      vertex  9.000000e-001 -2.191124e+000  1.119742e+001
      vertex  9.000000e-001  3.200000e+000  0.000000e+000
      vertex  9.000000e-001 -3.200000e+000  0.000000e+000
    endloop
  endfacet
  facet normal  0.000000e+000  9.959657e-001 -8.973547e-002
    outer loop
      vertex -9.000000e-001 -3.200000e+000  0.000000e+000
      vertex -9.000000e-001 -2.191124e+000  1.119742e+001
      vertex  9.000000e-001 -3.200000e+000  0.000000e+000
    endloop
  endfacet
  facet normal  0.000000e+000  9.959657e-001 -8.973547e-002
    outer loop
      vertex  9.000000e-001 -3.200000e+000  0.000000e+000
      vertex -9.000000e-001 -2.191124e+000  1.119742e+001
      vertex  9.000000e-001 -2.191124e+000  1.119742e+001
    endloop
  endfacet
  facet normal  -0.000000e+000 -9.959657e-001 -8.973547e-002
    outer loop
      vertex -9.000000e-001  3.200000e+000  0.000000e+000
      vertex  9.000000e-001  3.200000e+000  0.000000e+000
      vertex -9.000000e-001  2.191124e+000  1.119742e+001
    endloop
  endfacet
  facet normal  0.000000e+000 -9.959657e-001 -8.973547e-002
    outer loop
      vertex -9.000000e-001  2.191124e+000  1.119742e+001
      vertex  9.000000e-001  3.200000e+000  0.000000e+000
      vertex  9.000000e-001  2.191124e+000  1.119742e+001
    endloop
  endfacet
  facet normal  0.000000e+000  3.618342e-001 -9.322425e-001
    outer loop
      vertex -9.000000e-001 -1.330783e-015  1.320000e+001
      vertex  9.000000e-001 -1.484197e+000  1.262393e+001
      vertex -9.000000e-001 -1.484197e+000  1.262393e+001
    endloop
  endfacet
  facet normal  0.000000e+000  8.960120e-001 -4.440300e-001
    outer loop
      vertex -9.000000e-001 -1.484197e+000  1.262393e+001
      vertex  9.000000e-001 -1.484197e+000  1.262393e+001
      vertex  9.000000e-001 -2.191124e+000  1.119742e+001
    endloop
  endfacet
  facet normal  0.000000e+000  8.960120e-001 -4.440300e-001
    outer loop
      vertex -9.000000e-001 -1.484197e+000  1.262393e+001
      vertex  9.000000e-001 -2.191124e+000  1.119742e+001
      vertex -9.000000e-001 -2.191124e+000  1.119742e+001
    endloop
  endfacet
  facet normal  0.000000e+000  3.618342e-001 -9.322425e-001
    outer loop
      vertex  9.000000e-001 -1.484197e+000  1.262393e+001
      vertex -9.000000e-001 -1.330783e-015  1.320000e+001
      vertex  9.000000e-001 -1.330783e-015  1.320000e+001
    endloop
  endfacet
  facet normal  -0.000000e+000 -3.618342e-001 -9.322425e-001
    outer loop
      vertex  9.000000e-001 -1.330783e-015  1.320000e+001
      vertex -9.000000e-001 -1.330783e-015  1.320000e+001
      vertex -9.000000e-001  1.484197e+000  1.262393e+001
    endloop
  endfacet
  facet normal  0.000000e+000 -3.618342e-001 -9.322425e-001
    outer loop
      vertex  9.000000e-001 -1.330783e-015  1.320000e+001
      vertex -9.000000e-001  1.484197e+000  1.262393e+001
      vertex  9.000000e-001  1.484197e+000  1.262393e+001
    endloop
  endfacet
  facet normal  -0.000000e+000 -8.960120e-001 -4.440300e-001
    outer loop
      vertex  9.000000e-001  1.484197e+000  1.262393e+001
      vertex -9.000000e-001  1.484197e+000  1.262393e+001
      vertex -9.000000e-001  2.191124e+000  1.119742e+001
    endloop
  endfacet
  facet normal  0.000000e+000 -8.960120e-001 -4.440300e-001
    outer loop
      vertex  9.000000e-001  1.484197e+000  1.262393e+001
      vertex -9.000000e-001  2.191124e+000  1.119742e+001
      vertex  9.000000e-001  2.191124e+000  1.119742e+001
    endloop
  endfacet
endsolid CATIA STL
