solid CATIA STL
  facet normal  0.000000e+000  0.000000e+000 -1.000000e+000
    outer loop
      vertex -9.000000e-001 -3.200000e+000  0.000000e+000
      vertex -2.598076e+000 -4.500000e+000  0.000000e+000
      vertex -3.000000e+000 -3.000000e+000  0.000000e+000
    endloop
  endfacet
  facet normal  0.000000e+000  -0.000000e+000 -1.000000e+000
    outer loop
      vertex  9.000000e-001  3.200000e+000  0.000000e+000
      vertex  2.598076e+000  4.500000e+000  0.000000e+000
      vertex  3.000000e+000  3.000000e+000  0.000000e+000
    endloop
  endfacet
  facet normal  0.000000e+000  0.000000e+000 -9.999999e-001
    outer loop
      vertex -9.000000e-001  3.200000e+000  0.000000e+000
      vertex -9.000000e-001 -3.200000e+000  0.000000e+000
      vertex -3.000000e+000 -3.000000e+000  0.000000e+000
    endloop
  endfacet
  facet normal  0.000000e+000  0.000000e+000 -1.000000e+000
    outer loop
      vertex -9.000000e-001  3.200000e+000  0.000000e+000
      vertex -3.000000e+000 -3.000000e+000  0.000000e+000
      vertex -3.000000e+000  3.000000e+000  0.000000e+000
    endloop
  endfacet
  facet normal  0.000000e+000  0.000000e+000 -1.000000e+000
    outer loop
      vertex -9.000000e-001  3.200000e+000  0.000000e+000
      vertex -3.000000e+000  3.000000e+000  0.000000e+000
      vertex -2.598076e+000  4.500000e+000  0.000000e+000
    endloop
  endfacet
  facet normal  0.000000e+000  0.000000e+000 -1.000000e+000
    outer loop
      vertex -9.000000e-001  3.200000e+000  0.000000e+000
      vertex -2.598076e+000  4.500000e+000  0.000000e+000
      vertex -1.500000e+000  5.598076e+000  0.000000e+000
    endloop
  endfacet
  facet normal  0.000000e+000  0.000000e+000 -1.000000e+000
    outer loop
      vertex  3.673940e-016 -6.000000e+000  0.000000e+000
      vertex -1.500000e+000 -5.598076e+000  0.000000e+000
      vertex -2.598076e+000 -4.500000e+000  0.000000e+000
    endloop
  endfacet
  facet normal  0.000000e+000  0.000000e+000 -9.999999e-001
    outer loop
      vertex  3.673940e-016 -6.000000e+000  0.000000e+000
      vertex -2.598076e+000 -4.500000e+000  0.000000e+000
      vertex -9.000000e-001 -3.200000e+000  0.000000e+000
    endloop
  endfacet
  facet normal  0.000000e+000  0.000000e+000 -1.000000e+000
    outer loop
      vertex  3.673940e-016 -6.000000e+000  0.000000e+000
      vertex -9.000000e-001 -3.200000e+000  0.000000e+000
      vertex  9.000000e-001 -3.200000e+000  0.000000e+000
    endloop
  endfacet
  facet normal  0.000000e+000  -0.000000e+000 -9.999999e-001
    outer loop
      vertex  3.673940e-016 -6.000000e+000  0.000000e+000
      vertex  9.000000e-001 -3.200000e+000  0.000000e+000
      vertex  2.598076e+000 -4.500000e+000  0.000000e+000
    endloop
  endfacet
  facet normal  0.000000e+000  0.000000e+000 -1.000000e+000
    outer loop
      vertex  3.673940e-016 -6.000000e+000  0.000000e+000
      vertex  2.598076e+000 -4.500000e+000  0.000000e+000
      vertex  1.500000e+000 -5.598076e+000  0.000000e+000
    endloop
  endfacet
  facet normal  0.000000e+000  0.000000e+000 -1.000000e+000
    outer loop
      vertex  1.500000e+000  5.598076e+000  0.000000e+000
      vertex  2.598076e+000  4.500000e+000  0.000000e+000
      vertex  7.347881e-016  6.000000e+000  0.000000e+000
    endloop
  endfacet
  facet normal  0.000000e+000  0.000000e+000 -9.999999e-001
    outer loop
      vertex  7.347881e-016  6.000000e+000  0.000000e+000
      vertex  2.598076e+000  4.500000e+000  0.000000e+000
      vertex  9.000000e-001  3.200000e+000  0.000000e+000
    endloop
  endfacet
  facet normal  0.000000e+000  0.000000e+000 -1.000000e+000
    outer loop
      vertex  7.347881e-016  6.000000e+000  0.000000e+000
      vertex  9.000000e-001  3.200000e+000  0.000000e+000
      vertex -1.500000e+000  5.598076e+000  0.000000e+000
    endloop
  endfacet
  facet normal  0.000000e+000  0.000000e+000 -1.000000e+000
    outer loop
      vertex -1.500000e+000  5.598076e+000  0.000000e+000
      vertex  9.000000e-001  3.200000e+000  0.000000e+000
      vertex -9.000000e-001  3.200000e+000  0.000000e+000
    endloop
  endfacet
  facet normal  -0.000000e+000  0.000000e+000 -1.000000e+000
    outer loop
      vertex  9.000000e-001  3.200000e+000  0.000000e+000
      vertex  3.000000e+000  3.000000e+000  0.000000e+000
      vertex  9.000000e-001 -3.200000e+000  0.000000e+000
    endloop
  endfacet
  facet normal  0.000000e+000  0.000000e+000 -1.000000e+000
    outer loop
      vertex  9.000000e-001 -3.200000e+000  0.000000e+000
      vertex  3.000000e+000  3.000000e+000  0.000000e+000
      vertex  3.000000e+000 -3.000000e+000  0.000000e+000
    endloop
  endfacet
  facet normal  0.000000e+000  0.000000e+000 -1.000000e+000
    outer loop
      vertex  9.000000e-001 -3.200000e+000  0.000000e+000
      vertex  3.000000e+000 -3.000000e+000  0.000000e+000
      vertex  2.598076e+000 -4.500000e+000  0.000000e+000
    endloop
  endfacet
  facet normal  0.000000e+000  0.000000e+000  9.999999e-001
    outer loop
      vertex  0.000000e+000 -6.000000e+000  2.500000e+001
      vertex  1.500000e+000 -5.598076e+000  2.500000e+001
      vertex -1.500000e+000 -5.598076e+000  2.500000e+001
    endloop
  endfacet
  facet normal  0.000000e+000  0.000000e+000  9.999999e-001
    outer loop
      vertex -1.500000e+000 -5.598076e+000  2.500000e+001
      vertex  1.500000e+000 -5.598076e+000  2.500000e+001
      vertex -2.598076e+000 -4.500000e+000  2.500000e+001
    endloop
  endfacet
  facet normal  -0.000000e+000  0.000000e+000  1.000000e+000
    outer loop
      vertex -2.598076e+000 -4.500000e+000  2.500000e+001
      vertex  1.500000e+000 -5.598076e+000  2.500000e+001
      vertex  2.598076e+000 -4.500000e+000  2.500000e+001
    endloop
  endfacet
  facet normal  0.000000e+000  0.000000e+000  9.999999e-001
    outer loop
      vertex -2.598076e+000 -4.500000e+000  2.500000e+001
      vertex  2.598076e+000 -4.500000e+000  2.500000e+001
      vertex -3.000000e+000 -3.000000e+000  2.500000e+001
    endloop
  endfacet
  facet normal  -0.000000e+000  0.000000e+000  1.000000e+000
    outer loop
      vertex -3.000000e+000 -3.000000e+000  2.500000e+001
      vertex  2.598076e+000 -4.500000e+000  2.500000e+001
      vertex  3.000000e+000 -3.000000e+000  2.500000e+001
    endloop
  endfacet
  facet normal  0.000000e+000  0.000000e+000  1.000000e+000
    outer loop
      vertex -3.000000e+000 -3.000000e+000  2.500000e+001
      vertex  3.000000e+000 -3.000000e+000  2.500000e+001
      vertex -3.000000e+000  3.000000e+000  2.500000e+001
    endloop
  endfacet
  facet normal  -0.000000e+000  0.000000e+000  1.000000e+000
    outer loop
      vertex -3.000000e+000  3.000000e+000  2.500000e+001
      vertex  3.000000e+000 -3.000000e+000  2.500000e+001
      vertex  3.000000e+000  3.000000e+000  2.500000e+001
    endloop
  endfacet
  facet normal  0.000000e+000  0.000000e+000  1.000000e+000
    outer loop
      vertex -3.000000e+000  3.000000e+000  2.500000e+001
      vertex  3.000000e+000  3.000000e+000  2.500000e+001
      vertex -2.598076e+000  4.500000e+000  2.500000e+001
    endloop
  endfacet
  facet normal  -0.000000e+000  0.000000e+000  9.999999e-001
    outer loop
      vertex -2.598076e+000  4.500000e+000  2.500000e+001
      vertex  3.000000e+000  3.000000e+000  2.500000e+001
      vertex  2.598076e+000  4.500000e+000  2.500000e+001
    endloop
  endfacet
  facet normal  0.000000e+000  0.000000e+000  1.000000e+000
    outer loop
      vertex -2.598076e+000  4.500000e+000  2.500000e+001
      vertex  2.598076e+000  4.500000e+000  2.500000e+001
      vertex -1.500000e+000  5.598076e+000  2.500000e+001
    endloop
  endfacet
  facet normal  -0.000000e+000  0.000000e+000  9.999999e-001
    outer loop
      vertex -1.500000e+000  5.598076e+000  2.500000e+001
      vertex  2.598076e+000  4.500000e+000  2.500000e+001
      vertex  1.500000e+000  5.598076e+000  2.500000e+001
    endloop
  endfacet
  facet normal  0.000000e+000  0.000000e+000  9.999999e-001
    outer loop
      vertex -1.500000e+000  5.598076e+000  2.500000e+001
      vertex  1.500000e+000  5.598076e+000  2.500000e+001
      vertex  3.673940e-016  6.000000e+000  2.500000e+001
    endloop
  endfacet
  facet normal  1.000000e+000  0.000000e+000  0.000000e+000
    outer loop
      vertex  3.000000e+000 -3.000000e+000  0.000000e+000
      vertex  3.000000e+000  3.000000e+000  0.000000e+000
      vertex  3.000000e+000 -3.000000e+000  2.500000e+001
    endloop
  endfacet
  facet normal  1.000000e+000  -0.000000e+000  0.000000e+000
    outer loop
      vertex  3.000000e+000 -3.000000e+000  2.500000e+001
      vertex  3.000000e+000  3.000000e+000  0.000000e+000
      vertex  3.000000e+000  3.000000e+000  2.500000e+001
    endloop
  endfacet
  facet normal  9.659258e-001 -2.588191e-001  0.000000e+000
    outer loop
      vertex  3.000000e+000 -3.000000e+000  0.000000e+000
      vertex  3.000000e+000 -3.000000e+000  2.500000e+001
      vertex  2.598076e+000 -4.500000e+000  0.000000e+000
    endloop
  endfacet
  facet normal  9.659258e-001 -2.588191e-001  0.000000e+000
    outer loop
      vertex  2.598076e+000 -4.500000e+000  0.000000e+000
      vertex  3.000000e+000 -3.000000e+000  2.500000e+001
      vertex  2.598076e+000 -4.500000e+000  2.500000e+001
    endloop
  endfacet
  facet normal  7.071069e-001 -7.071067e-001  0.000000e+000
    outer loop
      vertex  2.598076e+000 -4.500000e+000  0.000000e+000
      vertex  2.598076e+000 -4.500000e+000  2.500000e+001
      vertex  1.500000e+000 -5.598076e+000  0.000000e+000
    endloop
  endfacet
  facet normal  7.071069e-001 -7.071067e-001  0.000000e+000
    outer loop
      vertex  1.500000e+000 -5.598076e+000  0.000000e+000
      vertex  2.598076e+000 -4.500000e+000  2.500000e+001
      vertex  1.500000e+000 -5.598076e+000  2.500000e+001
    endloop
  endfacet
  facet normal  2.588190e-001 -9.659258e-001  0.000000e+000
    outer loop
      vertex  1.500000e+000 -5.598076e+000  0.000000e+000
      vertex  1.500000e+000 -5.598076e+000  2.500000e+001
      vertex  3.673940e-016 -6.000000e+000  0.000000e+000
    endloop
  endfacet
  facet normal  2.588190e-001 -9.659258e-001  3.803542e-018
    outer loop
      vertex  3.673940e-016 -6.000000e+000  0.000000e+000
      vertex  1.500000e+000 -5.598076e+000  2.500000e+001
      vertex  0.000000e+000 -6.000000e+000  2.500000e+001
    endloop
  endfacet
  facet normal -1.000000e+000  0.000000e+000  0.000000e+000
    outer loop
      vertex -3.000000e+000 -3.000000e+000  0.000000e+000
      vertex -3.000000e+000 -3.000000e+000  2.500000e+001
      vertex -3.000000e+000  3.000000e+000  0.000000e+000
    endloop
  endfacet
  facet normal -1.000000e+000  0.000000e+000  0.000000e+000
    outer loop
      vertex -3.000000e+000  3.000000e+000  0.000000e+000
      vertex -3.000000e+000 -3.000000e+000  2.500000e+001
      vertex -3.000000e+000  3.000000e+000  2.500000e+001
    endloop
  endfacet
  facet normal -9.659258e-001 -2.588191e-001  0.000000e+000
    outer loop
      vertex -3.000000e+000 -3.000000e+000  2.500000e+001
      vertex -3.000000e+000 -3.000000e+000  0.000000e+000
      vertex -2.598076e+000 -4.500000e+000  2.500000e+001
    endloop
  endfacet
  facet normal -9.659258e-001 -2.588191e-001  -0.000000e+000
    outer loop
      vertex -2.598076e+000 -4.500000e+000  2.500000e+001
      vertex -3.000000e+000 -3.000000e+000  0.000000e+000
      vertex -2.598076e+000 -4.500000e+000  0.000000e+000
    endloop
  endfacet
  facet normal -7.071069e-001 -7.071067e-001  0.000000e+000
    outer loop
      vertex -2.598076e+000 -4.500000e+000  2.500000e+001
      vertex -2.598076e+000 -4.500000e+000  0.000000e+000
      vertex -1.500000e+000 -5.598076e+000  2.500000e+001
    endloop
  endfacet
  facet normal -7.071069e-001 -7.071067e-001  -0.000000e+000
    outer loop
      vertex -1.500000e+000 -5.598076e+000  2.500000e+001
      vertex -2.598076e+000 -4.500000e+000  0.000000e+000
      vertex -1.500000e+000 -5.598076e+000  0.000000e+000
    endloop
  endfacet
  facet normal -2.588190e-001 -9.659258e-001  0.000000e+000
    outer loop
      vertex -1.500000e+000 -5.598076e+000  2.500000e+001
      vertex -1.500000e+000 -5.598076e+000  0.000000e+000
      vertex  0.000000e+000 -6.000000e+000  2.500000e+001
    endloop
  endfacet
  facet normal -2.588190e-001 -9.659258e-001 -3.803542e-018
    outer loop
      vertex  0.000000e+000 -6.000000e+000  2.500000e+001
      vertex -1.500000e+000 -5.598076e+000  0.000000e+000
      vertex  3.673940e-016 -6.000000e+000  0.000000e+000
    endloop
  endfacet
  facet normal  2.588190e-001  9.659258e-001  3.803542e-018
    outer loop
      vertex  7.347881e-016  6.000000e+000  0.000000e+000
      vertex  3.673940e-016  6.000000e+000  2.500000e+001
      vertex  1.500000e+000  5.598076e+000  0.000000e+000
    endloop
  endfacet
  facet normal  2.588190e-001  9.659258e-001  -0.000000e+000
    outer loop
      vertex  1.500000e+000  5.598076e+000  0.000000e+000
      vertex  3.673940e-016  6.000000e+000  2.500000e+001
      vertex  1.500000e+000  5.598076e+000  2.500000e+001
    endloop
  endfacet
  facet normal  7.071069e-001  7.071067e-001  0.000000e+000
    outer loop
      vertex  1.500000e+000  5.598076e+000  0.000000e+000
      vertex  1.500000e+000  5.598076e+000  2.500000e+001
      vertex  2.598076e+000  4.500000e+000  0.000000e+000
    endloop
  endfacet
  facet normal  7.071069e-001  7.071067e-001  -0.000000e+000
    outer loop
      vertex  2.598076e+000  4.500000e+000  0.000000e+000
      vertex  1.500000e+000  5.598076e+000  2.500000e+001
      vertex  2.598076e+000  4.500000e+000  2.500000e+001
    endloop
  endfacet
  facet normal  9.659258e-001  2.588191e-001  0.000000e+000
    outer loop
      vertex  2.598076e+000  4.500000e+000  0.000000e+000
      vertex  2.598076e+000  4.500000e+000  2.500000e+001
      vertex  3.000000e+000  3.000000e+000  0.000000e+000
    endloop
  endfacet
  facet normal  9.659258e-001  2.588191e-001  -0.000000e+000
    outer loop
      vertex  3.000000e+000  3.000000e+000  0.000000e+000
      vertex  2.598076e+000  4.500000e+000  2.500000e+001
      vertex  3.000000e+000  3.000000e+000  2.500000e+001
    endloop
  endfacet
  facet normal -9.659258e-001  2.588191e-001  0.000000e+000
    outer loop
      vertex -3.000000e+000  3.000000e+000  0.000000e+000
      vertex -3.000000e+000  3.000000e+000  2.500000e+001
      vertex -2.598076e+000  4.500000e+000  0.000000e+000
    endloop
  endfacet
  facet normal -9.659258e-001  2.588191e-001  0.000000e+000
    outer loop
      vertex -2.598076e+000  4.500000e+000  0.000000e+000
      vertex -3.000000e+000  3.000000e+000  2.500000e+001
      vertex -2.598076e+000  4.500000e+000  2.500000e+001
    endloop
  endfacet
  facet normal -7.071069e-001  7.071067e-001  0.000000e+000
    outer loop
      vertex -2.598076e+000  4.500000e+000  0.000000e+000
      vertex -2.598076e+000  4.500000e+000  2.500000e+001
      vertex -1.500000e+000  5.598076e+000  0.000000e+000
    endloop
  endfacet
  facet normal -7.071069e-001  7.071067e-001  0.000000e+000
    outer loop
      vertex -1.500000e+000  5.598076e+000  0.000000e+000
      vertex -2.598076e+000  4.500000e+000  2.500000e+001
      vertex -1.500000e+000  5.598076e+000  2.500000e+001
    endloop
  endfacet
  facet normal -2.588190e-001  9.659258e-001  0.000000e+000
    outer loop
      vertex -1.500000e+000  5.598076e+000  0.000000e+000
      vertex -1.500000e+000  5.598076e+000  2.500000e+001
      vertex  7.347881e-016  6.000000e+000  0.000000e+000
    endloop
  endfacet
  facet normal -2.588190e-001  9.659258e-001 -3.803542e-018
    outer loop
      vertex  7.347881e-016  6.000000e+000  0.000000e+000
      vertex -1.500000e+000  5.598076e+000  2.500000e+001
      vertex  3.673940e-016  6.000000e+000  2.500000e+001
    endloop
  endfacet
  facet normal  1.000000e+000  0.000000e+000  0.000000e+000
    outer loop
      vertex -9.000000e-001 -3.200000e+000  0.000000e+000
      vertex -9.000000e-001  3.200000e+000  0.000000e+000
      vertex -9.000000e-001 -2.191124e+000  1.119742e+001
    endloop
  endfacet
  facet normal  9.999999e-001  -0.000000e+000  0.000000e+000
    outer loop
      vertex -9.000000e-001 -2.191124e+000  1.119742e+001
      vertex -9.000000e-001  3.200000e+000  0.000000e+000
      vertex -9.000000e-001  2.191124e+000  1.119742e+001
    endloop
  endfacet
  facet normal  1.000000e+000  0.000000e+000  0.000000e+000
    outer loop
      vertex -9.000000e-001 -2.191124e+000  1.119742e+001
      vertex -9.000000e-001  2.191124e+000  1.119742e+001
      vertex -9.000000e-001 -1.484197e+000  1.262393e+001
    endloop
  endfacet
  facet normal  1.000000e+000  -0.000000e+000  0.000000e+000
    outer loop
      vertex -9.000000e-001 -1.484197e+000  1.262393e+001
      vertex -9.000000e-001  2.191124e+000  1.119742e+001
      vertex -9.000000e-001  1.484197e+000  1.262393e+001
    endloop
  endfacet
  facet normal  1.000000e+000  0.000000e+000  0.000000e+000
    outer loop
      vertex -9.000000e-001 -1.484197e+000  1.262393e+001
      vertex -9.000000e-001  1.484197e+000  1.262393e+001
      vertex -9.000000e-001 -1.330783e-015  1.320000e+001
    endloop
  endfacet
  facet normal -1.000000e+000  0.000000e+000  0.000000e+000
    outer loop
      vertex  9.000000e-001 -1.330783e-015  1.320000e+001
      vertex  9.000000e-001  1.484197e+000  1.262393e+001
      vertex  9.000000e-001 -1.484197e+000  1.262393e+001
    endloop
  endfacet
  facet normal -1.000000e+000  0.000000e+000  0.000000e+000
    outer loop
      vertex  9.000000e-001 -1.484197e+000  1.262393e+001
      vertex  9.000000e-001  1.484197e+000  1.262393e+001
      vertex  9.000000e-001  2.191124e+000  1.119742e+001
    endloop
  endfacet
  facet normal -1.000000e+000  0.000000e+000  0.000000e+000
    outer loop
      vertex  9.000000e-001 -1.484197e+000  1.262393e+001
      vertex  9.000000e-001  2.191124e+000  1.119742e+001
      vertex  9.000000e-001 -2.191124e+000  1.119742e+001
    endloop
  endfacet
  facet normal -9.999999e-001  0.000000e+000  0.000000e+000
    outer loop
      vertex  9.000000e-001 -2.191124e+000  1.119742e+001
      vertex  9.000000e-001  2.191124e+000  1.119742e+001
      vertex  9.000000e-001  3.200000e+000  0.000000e+000
    endloop
  endfacet
  facet normal -1.000000e+000  0.000000e+000  0.000000e+000
    outer loop
      vertex  9.000000e-001 -2.191124e+000  1.119742e+001
      vertex  9.000000e-001  3.200000e+000  0.000000e+000
      vertex  9.000000e-001 -3.200000e+000  0.000000e+000
    endloop
  endfacet
  facet normal  0.000000e+000  9.959657e-001 -8.973547e-002
    outer loop
      vertex -9.000000e-001 -3.200000e+000  0.000000e+000
      vertex -9.000000e-001 -2.191124e+000  1.119742e+001
      vertex  9.000000e-001 -3.200000e+000  0.000000e+000
    endloop
  endfacet
  facet normal  0.000000e+000  9.959657e-001 -8.973547e-002
    outer loop
      vertex  9.000000e-001 -3.200000e+000  0.000000e+000
      vertex -9.000000e-001 -2.191124e+000  1.119742e+001
      vertex  9.000000e-001 -2.191124e+000  1.119742e+001
    endloop
  endfacet
  facet normal  -0.000000e+000 -9.959657e-001 -8.973547e-002
    outer loop
      vertex -9.000000e-001  3.200000e+000  0.000000e+000
      vertex  9.000000e-001  3.200000e+000  0.000000e+000
      vertex -9.000000e-001  2.191124e+000  1.119742e+001
    endloop
  endfacet
  facet normal  0.000000e+000 -9.959657e-001 -8.973547e-002
    outer loop
      vertex -9.000000e-001  2.191124e+000  1.119742e+001
      vertex  9.000000e-001  3.200000e+000  0.000000e+000
      vertex  9.000000e-001  2.191124e+000  1.119742e+001
    endloop
  endfacet
  facet normal  0.000000e+000  3.618342e-001 -9.322425e-001
    outer loop
      vertex -9.000000e-001 -1.330783e-015  1.320000e+001
      vertex  9.000000e-001 -1.484197e+000  1.262393e+001
      vertex -9.000000e-001 -1.484197e+000  1.262393e+001
    endloop
  endfacet
  facet normal  0.000000e+000  8.960120e-001 -4.440300e-001
    outer loop
      vertex -9.000000e-001 -1.484197e+000  1.262393e+001
      vertex  9.000000e-001 -1.484197e+000  1.262393e+001
      vertex  9.000000e-001 -2.191124e+000  1.119742e+001
    endloop
  endfacet
  facet normal  0.000000e+000  8.960120e-001 -4.440300e-001
    outer loop
      vertex -9.000000e-001 -1.484197e+000  1.262393e+001
      vertex  9.000000e-001 -2.191124e+000  1.119742e+001
      vertex -9.000000e-001 -2.191124e+000  1.119742e+001
    endloop
  endfacet
  facet normal  0.000000e+000  3.618342e-001 -9.322425e-001
    outer loop
      vertex  9.000000e-001 -1.484197e+000  1.262393e+001
      vertex -9.000000e-001 -1.330783e-015  1.320000e+001
      vertex  9.000000e-001 -1.330783e-015  1.320000e+001
    endloop
  endfacet
  facet normal  -0.000000e+000 -3.618342e-001 -9.322425e-001
    outer loop
      vertex  9.000000e-001 -1.330783e-015  1.320000e+001
      vertex -9.000000e-001 -1.330783e-015  1.320000e+001
      vertex -9.000000e-001  1.484197e+000  1.262393e+001
    endloop
  endfacet
  facet normal  0.000000e+000 -3.618342e-001 -9.322425e-001
    outer loop
      vertex  9.000000e-001 -1.330783e-015  1.320000e+001
      vertex -9.000000e-001  1.484197e+000  1.262393e+001
      vertex  9.000000e-001  1.484197e+000  1.262393e+001
    endloop
  endfacet
  facet normal  -0.000000e+000 -8.960120e-001 -4.440300e-001
    outer loop
      vertex  9.000000e-001  1.484197e+000  1.262393e+001
      vertex -9.000000e-001  1.484197e+000  1.262393e+001
      vertex -9.000000e-001  2.191124e+000  1.119742e+001
    endloop
  endfacet
  facet normal  0.000000e+000 -8.960120e-001 -4.440300e-001
    outer loop
      vertex  9.000000e-001  1.484197e+000  1.262393e+001
      vertex -9.000000e-001  2.191124e+000  1.119742e+001
      vertex  9.000000e-001  2.191124e+000  1.119742e+001
    endloop
  endfacet
endsolid CATIA STL
