solid CATIA STL
  facet normal  0.000000e+000 -1.000000e+000  0.000000e+000
    outer loop
      vertex -1.335047e+002 -6.000000e+001  1.150000e+002
      vertex -1.940052e+002 -6.000000e+001  8.030993e+001
      vertex -2.200521e+001 -6.000000e+001  1.150000e+002
    endloop
  endfacet
  facet normal  0.000000e+000 -1.000000e+000  0.000000e+000
    outer loop
      vertex -2.200521e+001 -6.000000e+001  1.150000e+002
      vertex -1.940052e+002 -6.000000e+001  8.030993e+001
      vertex -1.940052e+002 -6.000000e+001  6.500000e+001
    endloop
  endfacet
  facet normal  0.000000e+000 -1.000000e+000  0.000000e+000
    outer loop
      vertex -2.200521e+001 -6.000000e+001  1.150000e+002
      vertex -1.940052e+002 -6.000000e+001  6.500000e+001
      vertex -2.200521e+001 -6.000000e+001  6.500000e+001
    endloop
  endfacet
  facet normal  -0.000000e+000  0.000000e+000  1.000000e+000
    outer loop
      vertex -2.200521e+001  4.500000e+001  1.300000e+002
      vertex -1.375000e+002  4.500000e+001  1.300000e+002
      vertex -2.200521e+001 -4.500000e+001  1.300000e+002
    endloop
  endfacet
  facet normal  0.000000e+000  0.000000e+000  1.000000e+000
    outer loop
      vertex -2.200521e+001 -4.500000e+001  1.300000e+002
      vertex -1.375000e+002  4.500000e+001  1.300000e+002
      vertex -1.375000e+002 -4.500000e+001  1.300000e+002
    endloop
  endfacet
  facet normal  0.000000e+000  1.000000e+000  0.000000e+000
    outer loop
      vertex -2.200521e+001  6.000000e+001  6.500000e+001
      vertex -1.940052e+002  6.000000e+001  6.500000e+001
      vertex -2.200521e+001  6.000000e+001  1.150000e+002
    endloop
  endfacet
  facet normal  0.000000e+000  1.000000e+000  0.000000e+000
    outer loop
      vertex -2.200521e+001  6.000000e+001  1.150000e+002
      vertex -1.940052e+002  6.000000e+001  6.500000e+001
      vertex -1.940052e+002  6.000000e+001  8.030993e+001
    endloop
  endfacet
  facet normal  0.000000e+000  1.000000e+000  0.000000e+000
    outer loop
      vertex -2.200521e+001  6.000000e+001  1.150000e+002
      vertex -1.940052e+002  6.000000e+001  8.030993e+001
      vertex -1.335047e+002  6.000000e+001  1.150000e+002
    endloop
  endfacet
  facet normal  0.000000e+000 -7.071068e-001  7.071068e-001
    outer loop
      vertex -2.200521e+001 -4.500000e+001  1.300000e+002
      vertex -1.375000e+002 -4.500000e+001  1.300000e+002
      vertex -2.200521e+001 -6.000000e+001  1.150000e+002
    endloop
  endfacet
  facet normal  0.000000e+000 -7.071068e-001  7.071068e-001
    outer loop
      vertex -2.200521e+001 -6.000000e+001  1.150000e+002
      vertex -1.375000e+002 -4.500000e+001  1.300000e+002
      vertex -1.335047e+002 -6.000000e+001  1.150000e+002
    endloop
  endfacet
  facet normal  0.000000e+000  7.071068e-001  7.071068e-001
    outer loop
      vertex -2.200521e+001  4.500000e+001  1.300000e+002
      vertex -2.200521e+001  6.000000e+001  1.150000e+002
      vertex -1.375000e+002  4.500000e+001  1.300000e+002
    endloop
  endfacet
  facet normal  0.000000e+000  7.071068e-001  7.071068e-001
    outer loop
      vertex -1.375000e+002  4.500000e+001  1.300000e+002
      vertex -2.200521e+001  6.000000e+001  1.150000e+002
      vertex -1.335047e+002  6.000000e+001  1.150000e+002
    endloop
  endfacet
  facet normal  0.000000e+000  1.000000e+000  -0.000000e+000
    outer loop
      vertex -2.200521e+001 -5.700000e+001  1.137574e+002
      vertex -2.200521e+001 -5.700000e+001  6.500000e+001
      vertex -1.331737e+002 -5.700000e+001  1.137574e+002
    endloop
  endfacet
  facet normal  0.000000e+000  1.000000e+000  0.000000e+000
    outer loop
      vertex -1.331737e+002 -5.700000e+001  1.137574e+002
      vertex -2.200521e+001 -5.700000e+001  6.500000e+001
      vertex -1.927626e+002 -5.700000e+001  6.500000e+001
    endloop
  endfacet
  facet normal  0.000000e+000  1.000000e+000  0.000000e+000
    outer loop
      vertex -1.331737e+002 -5.700000e+001  1.137574e+002
      vertex -1.927626e+002 -5.700000e+001  6.500000e+001
      vertex -1.927626e+002 -5.700000e+001  7.959002e+001
    endloop
  endfacet
  facet normal  0.000000e+000  0.000000e+000 -1.000000e+000
    outer loop
      vertex -2.200521e+001  4.375736e+001  1.270000e+002
      vertex -2.200521e+001 -4.375736e+001  1.270000e+002
      vertex -1.367009e+002  4.375736e+001  1.270000e+002
    endloop
  endfacet
  facet normal  0.000000e+000  0.000000e+000 -1.000000e+000
    outer loop
      vertex -1.367009e+002  4.375736e+001  1.270000e+002
      vertex -2.200521e+001 -4.375736e+001  1.270000e+002
      vertex -1.367009e+002 -4.375736e+001  1.270000e+002
    endloop
  endfacet
  facet normal  0.000000e+000 -1.000000e+000  0.000000e+000
    outer loop
      vertex -1.927626e+002  5.700000e+001  7.959002e+001
      vertex -1.927626e+002  5.700000e+001  6.500000e+001
      vertex -1.331737e+002  5.700000e+001  1.137574e+002
    endloop
  endfacet
  facet normal  0.000000e+000 -1.000000e+000  -0.000000e+000
    outer loop
      vertex -1.331737e+002  5.700000e+001  1.137574e+002
      vertex -1.927626e+002  5.700000e+001  6.500000e+001
      vertex -2.200521e+001  5.700000e+001  6.500000e+001
    endloop
  endfacet
  facet normal  0.000000e+000 -1.000000e+000  0.000000e+000
    outer loop
      vertex -1.331737e+002  5.700000e+001  1.137574e+002
      vertex -2.200521e+001  5.700000e+001  6.500000e+001
      vertex -2.200521e+001  5.700000e+001  1.137574e+002
    endloop
  endfacet
  facet normal  0.000000e+000  7.071066e-001 -7.071069e-001
    outer loop
      vertex -2.200521e+001 -4.375736e+001  1.270000e+002
      vertex -2.200521e+001 -5.700000e+001  1.137574e+002
      vertex -1.367009e+002 -4.375736e+001  1.270000e+002
    endloop
  endfacet
  facet normal  0.000000e+000  7.071067e-001 -7.071069e-001
    outer loop
      vertex -1.367009e+002 -4.375736e+001  1.270000e+002
      vertex -2.200521e+001 -5.700000e+001  1.137574e+002
      vertex -1.331737e+002 -5.700000e+001  1.137574e+002
    endloop
  endfacet
  facet normal  0.000000e+000 -7.071066e-001 -7.071069e-001
    outer loop
      vertex -2.200521e+001  4.375736e+001  1.270000e+002
      vertex -1.367009e+002  4.375736e+001  1.270000e+002
      vertex -2.200521e+001  5.700000e+001  1.137574e+002
    endloop
  endfacet
  facet normal  -0.000000e+000 -7.071067e-001 -7.071069e-001
    outer loop
      vertex -2.200521e+001  5.700000e+001  1.137574e+002
      vertex -1.367009e+002  4.375736e+001  1.270000e+002
      vertex -1.331737e+002  5.700000e+001  1.137574e+002
    endloop
  endfacet
  facet normal  0.000000e+000  0.000000e+000 -1.000000e+000
    outer loop
      vertex -1.940052e+002 -6.000000e+001  6.500000e+001
      vertex -2.090052e+002 -4.500000e+001  6.500000e+001
      vertex -2.060052e+002 -4.375736e+001  6.500000e+001
    endloop
  endfacet
  facet normal  0.000000e+000  0.000000e+000 -1.000000e+000
    outer loop
      vertex -1.940052e+002 -6.000000e+001  6.500000e+001
      vertex -2.060052e+002 -4.375736e+001  6.500000e+001
      vertex -1.927626e+002 -5.700000e+001  6.500000e+001
    endloop
  endfacet
  facet normal  0.000000e+000  -0.000000e+000 -1.000000e+000
    outer loop
      vertex -1.940052e+002 -6.000000e+001  6.500000e+001
      vertex -1.927626e+002 -5.700000e+001  6.500000e+001
      vertex -2.200521e+001 -5.700000e+001  6.500000e+001
    endloop
  endfacet
  facet normal  0.000000e+000  -0.000000e+000 -1.000000e+000
    outer loop
      vertex -1.940052e+002 -6.000000e+001  6.500000e+001
      vertex -2.200521e+001 -5.700000e+001  6.500000e+001
      vertex -2.200521e+001 -6.000000e+001  6.500000e+001
    endloop
  endfacet
  facet normal  0.000000e+000  -0.000000e+000 -9.999999e-001
    outer loop
      vertex -2.090052e+002  4.500000e+001  6.500000e+001
      vertex -1.940052e+002  6.000000e+001  6.500000e+001
      vertex -1.927626e+002  5.700000e+001  6.500000e+001
    endloop
  endfacet
  facet normal  0.000000e+000  0.000000e+000 -1.000000e+000
    outer loop
      vertex -2.090052e+002  4.500000e+001  6.500000e+001
      vertex -1.927626e+002  5.700000e+001  6.500000e+001
      vertex -2.060052e+002  4.375736e+001  6.500000e+001
    endloop
  endfacet
  facet normal  -0.000000e+000  -0.000000e+000 -1.000000e+000
    outer loop
      vertex -2.090052e+002  4.500000e+001  6.500000e+001
      vertex -2.060052e+002  4.375736e+001  6.500000e+001
      vertex -2.060052e+002 -4.375736e+001  6.500000e+001
    endloop
  endfacet
  facet normal  -0.000000e+000  0.000000e+000 -1.000000e+000
    outer loop
      vertex -2.090052e+002  4.500000e+001  6.500000e+001
      vertex -2.060052e+002 -4.375736e+001  6.500000e+001
      vertex -2.090052e+002 -4.500000e+001  6.500000e+001
    endloop
  endfacet
  facet normal  0.000000e+000  0.000000e+000 -1.000000e+000
    outer loop
      vertex -1.927626e+002  5.700000e+001  6.500000e+001
      vertex -1.940052e+002  6.000000e+001  6.500000e+001
      vertex -2.200521e+001  5.700000e+001  6.500000e+001
    endloop
  endfacet
  facet normal  0.000000e+000  0.000000e+000 -1.000000e+000
    outer loop
      vertex -2.200521e+001  5.700000e+001  6.500000e+001
      vertex -1.940052e+002  6.000000e+001  6.500000e+001
      vertex -2.200521e+001  6.000000e+001  6.500000e+001
    endloop
  endfacet
  facet normal  1.000000e+000  -0.000000e+000  0.000000e+000
    outer loop
      vertex -2.200521e+001  4.500000e+001  1.300000e+002
      vertex -2.200521e+001 -4.500000e+001  1.300000e+002
      vertex -2.200521e+001 -4.375736e+001  1.270000e+002
    endloop
  endfacet
  facet normal  1.000000e+000  0.000000e+000  0.000000e+000
    outer loop
      vertex -2.200521e+001  4.500000e+001  1.300000e+002
      vertex -2.200521e+001 -4.375736e+001  1.270000e+002
      vertex -2.200521e+001  4.375736e+001  1.270000e+002
    endloop
  endfacet
  facet normal  1.000000e+000  -0.000000e+000  0.000000e+000
    outer loop
      vertex -2.200521e+001  4.500000e+001  1.300000e+002
      vertex -2.200521e+001  4.375736e+001  1.270000e+002
      vertex -2.200521e+001  5.700000e+001  1.137574e+002
    endloop
  endfacet
  facet normal  1.000000e+000  0.000000e+000  -0.000000e+000
    outer loop
      vertex -2.200521e+001  4.500000e+001  1.300000e+002
      vertex -2.200521e+001  5.700000e+001  1.137574e+002
      vertex -2.200521e+001  6.000000e+001  1.150000e+002
    endloop
  endfacet
  facet normal  1.000000e+000  0.000000e+000  0.000000e+000
    outer loop
      vertex -2.200521e+001  5.700000e+001  6.500000e+001
      vertex -2.200521e+001  6.000000e+001  6.500000e+001
      vertex -2.200521e+001  5.700000e+001  1.137574e+002
    endloop
  endfacet
  facet normal  1.000000e+000  -0.000000e+000  0.000000e+000
    outer loop
      vertex -2.200521e+001  5.700000e+001  1.137574e+002
      vertex -2.200521e+001  6.000000e+001  6.500000e+001
      vertex -2.200521e+001  6.000000e+001  1.150000e+002
    endloop
  endfacet
  facet normal  9.999999e-001  0.000000e+000  0.000000e+000
    outer loop
      vertex -2.200521e+001 -4.500000e+001  1.300000e+002
      vertex -2.200521e+001 -6.000000e+001  1.150000e+002
      vertex -2.200521e+001 -4.375736e+001  1.270000e+002
    endloop
  endfacet
  facet normal  1.000000e+000  0.000000e+000  0.000000e+000
    outer loop
      vertex -2.200521e+001 -4.375736e+001  1.270000e+002
      vertex -2.200521e+001 -6.000000e+001  1.150000e+002
      vertex -2.200521e+001 -5.700000e+001  1.137574e+002
    endloop
  endfacet
  facet normal  1.000000e+000  0.000000e+000  0.000000e+000
    outer loop
      vertex -2.200521e+001 -6.000000e+001  1.150000e+002
      vertex -2.200521e+001 -6.000000e+001  6.500000e+001
      vertex -2.200521e+001 -5.700000e+001  1.137574e+002
    endloop
  endfacet
  facet normal  1.000000e+000  0.000000e+000  0.000000e+000
    outer loop
      vertex -2.200521e+001 -5.700000e+001  1.137574e+002
      vertex -2.200521e+001 -6.000000e+001  6.500000e+001
      vertex -2.200521e+001 -5.700000e+001  6.500000e+001
    endloop
  endfacet
  facet normal -7.071068e-001 -7.071068e-001  0.000000e+000
    outer loop
      vertex -2.090052e+002 -4.500000e+001  8.900000e+001
      vertex -2.090052e+002 -4.500000e+001  6.500000e+001
      vertex -1.940052e+002 -6.000000e+001  8.030993e+001
    endloop
  endfacet
  facet normal -7.071068e-001 -7.071068e-001  -0.000000e+000
    outer loop
      vertex -1.940052e+002 -6.000000e+001  8.030993e+001
      vertex -2.090052e+002 -4.500000e+001  6.500000e+001
      vertex -1.940052e+002 -6.000000e+001  6.500000e+001
    endloop
  endfacet
  facet normal -1.000000e+000  -0.000000e+000  0.000000e+000
    outer loop
      vertex -2.090052e+002 -4.500000e+001  8.900000e+001
      vertex -2.090052e+002  4.500000e+001  8.900000e+001
      vertex -2.090052e+002 -4.500000e+001  6.500000e+001
    endloop
  endfacet
  facet normal -1.000000e+000  0.000000e+000  0.000000e+000
    outer loop
      vertex -2.090052e+002 -4.500000e+001  6.500000e+001
      vertex -2.090052e+002  4.500000e+001  8.900000e+001
      vertex -2.090052e+002  4.500000e+001  6.500000e+001
    endloop
  endfacet
  facet normal -7.071068e-001  7.071068e-001  0.000000e+000
    outer loop
      vertex -2.090052e+002  4.500000e+001  8.900000e+001
      vertex -1.940052e+002  6.000000e+001  8.030993e+001
      vertex -2.090052e+002  4.500000e+001  6.500000e+001
    endloop
  endfacet
  facet normal -7.071068e-001  7.071068e-001  0.000000e+000
    outer loop
      vertex -2.090052e+002  4.500000e+001  6.500000e+001
      vertex -1.940052e+002  6.000000e+001  8.030993e+001
      vertex -1.940052e+002  6.000000e+001  6.500000e+001
    endloop
  endfacet
  facet normal  7.071067e-001 -7.071069e-001  0.000000e+000
    outer loop
      vertex -2.060052e+002  4.375736e+001  8.726199e+001
      vertex -2.060052e+002  4.375736e+001  6.500000e+001
      vertex -1.927626e+002  5.700000e+001  7.959002e+001
    endloop
  endfacet
  facet normal  7.071067e-001 -7.071069e-001  0.000000e+000
    outer loop
      vertex -1.927626e+002  5.700000e+001  7.959002e+001
      vertex -2.060052e+002  4.375736e+001  6.500000e+001
      vertex -1.927626e+002  5.700000e+001  6.500000e+001
    endloop
  endfacet
  facet normal  7.071067e-001  7.071069e-001  0.000000e+000
    outer loop
      vertex -2.060052e+002 -4.375736e+001  8.726199e+001
      vertex -1.927626e+002 -5.700000e+001  7.959002e+001
      vertex -2.060052e+002 -4.375736e+001  6.500000e+001
    endloop
  endfacet
  facet normal  7.071067e-001  7.071069e-001  0.000000e+000
    outer loop
      vertex -2.060052e+002 -4.375736e+001  6.500000e+001
      vertex -1.927626e+002 -5.700000e+001  7.959002e+001
      vertex -1.927626e+002 -5.700000e+001  6.500000e+001
    endloop
  endfacet
  facet normal  1.000000e+000  0.000000e+000  0.000000e+000
    outer loop
      vertex -2.060052e+002 -4.375736e+001  8.726199e+001
      vertex -2.060052e+002 -4.375736e+001  6.500000e+001
      vertex -2.060052e+002  4.375736e+001  8.726199e+001
    endloop
  endfacet
  facet normal  1.000000e+000  0.000000e+000  0.000000e+000
    outer loop
      vertex -2.060052e+002  4.375736e+001  8.726199e+001
      vertex -2.060052e+002 -4.375736e+001  6.500000e+001
      vertex -2.060052e+002  4.375736e+001  6.500000e+001
    endloop
  endfacet
  facet normal  3.517275e-001  7.071067e-001 -6.134231e-001
    outer loop
      vertex -1.367009e+002 -4.375736e+001  1.270000e+002
      vertex -1.331737e+002 -5.700000e+001  1.137574e+002
      vertex -2.060052e+002 -4.375736e+001  8.726199e+001
    endloop
  endfacet
  facet normal  3.517275e-001  7.071068e-001 -6.134230e-001
    outer loop
      vertex -2.060052e+002 -4.375736e+001  8.726199e+001
      vertex -1.331737e+002 -5.700000e+001  1.137574e+002
      vertex -1.927626e+002 -5.700000e+001  7.959002e+001
    endloop
  endfacet
  facet normal  4.974177e-001  0.000000e+000 -8.675112e-001
    outer loop
      vertex -1.367009e+002 -4.375736e+001  1.270000e+002
      vertex -2.060052e+002 -4.375736e+001  8.726199e+001
      vertex -1.367009e+002  4.375736e+001  1.270000e+002
    endloop
  endfacet
  facet normal  4.974177e-001  0.000000e+000 -8.675112e-001
    outer loop
      vertex -1.367009e+002  4.375736e+001  1.270000e+002
      vertex -2.060052e+002 -4.375736e+001  8.726199e+001
      vertex -2.060052e+002  4.375736e+001  8.726199e+001
    endloop
  endfacet
  facet normal  3.517275e-001 -7.071066e-001 -6.134232e-001
    outer loop
      vertex -1.367009e+002  4.375736e+001  1.270000e+002
      vertex -2.060052e+002  4.375736e+001  8.726199e+001
      vertex -1.331737e+002  5.700000e+001  1.137574e+002
    endloop
  endfacet
  facet normal  3.517275e-001 -7.071068e-001 -6.134230e-001
    outer loop
      vertex -1.331737e+002  5.700000e+001  1.137574e+002
      vertex -2.060052e+002  4.375736e+001  8.726199e+001
      vertex -1.927626e+002  5.700000e+001  7.959002e+001
    endloop
  endfacet
  facet normal -4.974177e-001  0.000000e+000  8.675112e-001
    outer loop
      vertex -1.375000e+002 -4.500000e+001  1.300000e+002
      vertex -1.375000e+002  4.500000e+001  1.300000e+002
      vertex -2.090052e+002 -4.500000e+001  8.900000e+001
    endloop
  endfacet
  facet normal -4.974177e-001  0.000000e+000  8.675112e-001
    outer loop
      vertex -2.090052e+002 -4.500000e+001  8.900000e+001
      vertex -1.375000e+002  4.500000e+001  1.300000e+002
      vertex -2.090052e+002  4.500000e+001  8.900000e+001
    endloop
  endfacet
  facet normal -3.517274e-001  7.071068e-001  6.134230e-001
    outer loop
      vertex -1.375000e+002  4.500000e+001  1.300000e+002
      vertex -1.335047e+002  6.000000e+001  1.150000e+002
      vertex -2.090052e+002  4.500000e+001  8.900000e+001
    endloop
  endfacet
  facet normal -3.517274e-001  7.071068e-001  6.134231e-001
    outer loop
      vertex -2.090052e+002  4.500000e+001  8.900000e+001
      vertex -1.335047e+002  6.000000e+001  1.150000e+002
      vertex -1.940052e+002  6.000000e+001  8.030993e+001
    endloop
  endfacet
  facet normal -3.517274e-001 -7.071068e-001  6.134230e-001
    outer loop
      vertex -1.375000e+002 -4.500000e+001  1.300000e+002
      vertex -2.090052e+002 -4.500000e+001  8.900000e+001
      vertex -1.335047e+002 -6.000000e+001  1.150000e+002
    endloop
  endfacet
  facet normal -3.517274e-001 -7.071068e-001  6.134230e-001
    outer loop
      vertex -1.335047e+002 -6.000000e+001  1.150000e+002
      vertex -2.090052e+002 -4.500000e+001  8.900000e+001
      vertex -1.940052e+002 -6.000000e+001  8.030993e+001
    endloop
  endfacet
endsolid CATIA STL
