solid CATIA STL
  facet normal  0.000000e+000 -1.000000e+000  0.000000e+000
    outer loop
      vertex  6.935970e+001 -6.000000e+001  1.150000e+002
      vertex -2.200521e+001 -6.000000e+001  1.150000e+002
      vertex  1.511289e+002 -6.000000e+001  7.919335e+001
    endloop
  endfacet
  facet normal  -0.000000e+000 -1.000000e+000  0.000000e+000
    outer loop
      vertex  1.511289e+002 -6.000000e+001  7.919335e+001
      vertex -2.200521e+001 -6.000000e+001  1.150000e+002
      vertex -2.200521e+001 -6.000000e+001  6.500000e+001
    endloop
  endfacet
  facet normal  0.000000e+000 -1.000000e+000  0.000000e+000
    outer loop
      vertex  1.511289e+002 -6.000000e+001  7.919335e+001
      vertex -2.200521e+001 -6.000000e+001  6.500000e+001
      vertex  1.511289e+002 -6.000000e+001  6.500000e+001
    endloop
  endfacet
  facet normal  -0.000000e+000  0.000000e+000  1.000000e+000
    outer loop
      vertex  7.250000e+001  4.500000e+001  1.300000e+002
      vertex -2.200521e+001  4.500000e+001  1.300000e+002
      vertex  7.250000e+001 -4.500000e+001  1.300000e+002
    endloop
  endfacet
  facet normal  0.000000e+000  0.000000e+000  1.000000e+000
    outer loop
      vertex  7.250000e+001 -4.500000e+001  1.300000e+002
      vertex -2.200521e+001  4.500000e+001  1.300000e+002
      vertex -2.200521e+001 -4.500000e+001  1.300000e+002
    endloop
  endfacet
  facet normal  0.000000e+000  1.000000e+000  0.000000e+000
    outer loop
      vertex  1.511289e+002  6.000000e+001  6.500000e+001
      vertex -2.200521e+001  6.000000e+001  6.500000e+001
      vertex  1.511289e+002  6.000000e+001  7.919335e+001
    endloop
  endfacet
  facet normal  0.000000e+000  1.000000e+000  0.000000e+000
    outer loop
      vertex  1.511289e+002  6.000000e+001  7.919335e+001
      vertex -2.200521e+001  6.000000e+001  6.500000e+001
      vertex -2.200521e+001  6.000000e+001  1.150000e+002
    endloop
  endfacet
  facet normal  -0.000000e+000  1.000000e+000  0.000000e+000
    outer loop
      vertex  1.511289e+002  6.000000e+001  7.919335e+001
      vertex -2.200521e+001  6.000000e+001  1.150000e+002
      vertex  6.935970e+001  6.000000e+001  1.150000e+002
    endloop
  endfacet
  facet normal  0.000000e+000 -7.071068e-001  7.071068e-001
    outer loop
      vertex  7.250000e+001 -4.500000e+001  1.300000e+002
      vertex -2.200521e+001 -4.500000e+001  1.300000e+002
      vertex  6.935970e+001 -6.000000e+001  1.150000e+002
    endloop
  endfacet
  facet normal  0.000000e+000 -7.071068e-001  7.071068e-001
    outer loop
      vertex  6.935970e+001 -6.000000e+001  1.150000e+002
      vertex -2.200521e+001 -4.500000e+001  1.300000e+002
      vertex -2.200521e+001 -6.000000e+001  1.150000e+002
    endloop
  endfacet
  facet normal  0.000000e+000  7.071068e-001  7.071068e-001
    outer loop
      vertex  7.250000e+001  4.500000e+001  1.300000e+002
      vertex  6.935970e+001  6.000000e+001  1.150000e+002
      vertex -2.200521e+001  4.500000e+001  1.300000e+002
    endloop
  endfacet
  facet normal  0.000000e+000  7.071068e-001  7.071068e-001
    outer loop
      vertex -2.200521e+001  4.500000e+001  1.300000e+002
      vertex  6.935970e+001  6.000000e+001  1.150000e+002
      vertex -2.200521e+001  6.000000e+001  1.150000e+002
    endloop
  endfacet
  facet normal  0.000000e+000  1.000000e+000  0.000000e+000
    outer loop
      vertex -2.200521e+001 -5.700000e+001  6.500000e+001
      vertex -2.200521e+001 -5.700000e+001  1.137574e+002
      vertex  1.498863e+002 -5.700000e+001  6.500000e+001
    endloop
  endfacet
  facet normal  0.000000e+000  1.000000e+000  0.000000e+000
    outer loop
      vertex  1.498863e+002 -5.700000e+001  6.500000e+001
      vertex -2.200521e+001 -5.700000e+001  1.137574e+002
      vertex  6.909955e+001 -5.700000e+001  1.137574e+002
    endloop
  endfacet
  facet normal  0.000000e+000  1.000000e+000  0.000000e+000
    outer loop
      vertex  1.498863e+002 -5.700000e+001  6.500000e+001
      vertex  6.909955e+001 -5.700000e+001  1.137574e+002
      vertex  1.498863e+002 -5.700000e+001  7.838094e+001
    endloop
  endfacet
  facet normal  0.000000e+000  0.000000e+000 -1.000000e+000
    outer loop
      vertex  7.187194e+001  4.375736e+001  1.270000e+002
      vertex  7.187194e+001 -4.375736e+001  1.270000e+002
      vertex -2.200521e+001  4.375736e+001  1.270000e+002
    endloop
  endfacet
  facet normal  0.000000e+000  0.000000e+000 -1.000000e+000
    outer loop
      vertex -2.200521e+001  4.375736e+001  1.270000e+002
      vertex  7.187194e+001 -4.375736e+001  1.270000e+002
      vertex -2.200521e+001 -4.375736e+001  1.270000e+002
    endloop
  endfacet
  facet normal  0.000000e+000 -1.000000e+000  0.000000e+000
    outer loop
      vertex  1.498863e+002  5.700000e+001  7.838094e+001
      vertex  6.909955e+001  5.700000e+001  1.137574e+002
      vertex  1.498863e+002  5.700000e+001  6.500000e+001
    endloop
  endfacet
  facet normal  0.000000e+000 -1.000000e+000  0.000000e+000
    outer loop
      vertex  1.498863e+002  5.700000e+001  6.500000e+001
      vertex  6.909955e+001  5.700000e+001  1.137574e+002
      vertex -2.200521e+001  5.700000e+001  1.137574e+002
    endloop
  endfacet
  facet normal  0.000000e+000 -1.000000e+000  0.000000e+000
    outer loop
      vertex  1.498863e+002  5.700000e+001  6.500000e+001
      vertex -2.200521e+001  5.700000e+001  1.137574e+002
      vertex -2.200521e+001  5.700000e+001  6.500000e+001
    endloop
  endfacet
  facet normal  0.000000e+000  7.071067e-001 -7.071069e-001
    outer loop
      vertex  7.187194e+001 -4.375736e+001  1.270000e+002
      vertex  6.909955e+001 -5.700000e+001  1.137574e+002
      vertex -2.200521e+001 -4.375736e+001  1.270000e+002
    endloop
  endfacet
  facet normal  0.000000e+000  7.071067e-001 -7.071069e-001
    outer loop
      vertex -2.200521e+001 -4.375736e+001  1.270000e+002
      vertex  6.909955e+001 -5.700000e+001  1.137574e+002
      vertex -2.200521e+001 -5.700000e+001  1.137574e+002
    endloop
  endfacet
  facet normal  0.000000e+000 -7.071067e-001 -7.071068e-001
    outer loop
      vertex  7.187194e+001  4.375736e+001  1.270000e+002
      vertex -2.200521e+001  4.375736e+001  1.270000e+002
      vertex  6.909955e+001  5.700000e+001  1.137574e+002
    endloop
  endfacet
  facet normal  -0.000000e+000 -7.071067e-001 -7.071069e-001
    outer loop
      vertex  6.909955e+001  5.700000e+001  1.137574e+002
      vertex -2.200521e+001  4.375736e+001  1.270000e+002
      vertex -2.200521e+001  5.700000e+001  1.137574e+002
    endloop
  endfacet
  facet normal  0.000000e+000  0.000000e+000 -1.000000e+000
    outer loop
      vertex  1.661289e+002 -4.500000e+001  6.500000e+001
      vertex  1.511289e+002 -6.000000e+001  6.500000e+001
      vertex  1.498863e+002 -5.700000e+001  6.500000e+001
    endloop
  endfacet
  facet normal  0.000000e+000  0.000000e+000 -1.000000e+000
    outer loop
      vertex  1.661289e+002 -4.500000e+001  6.500000e+001
      vertex  1.498863e+002 -5.700000e+001  6.500000e+001
      vertex  1.631289e+002 -4.375736e+001  6.500000e+001
    endloop
  endfacet
  facet normal  0.000000e+000  0.000000e+000 -9.999999e-001
    outer loop
      vertex  1.661289e+002 -4.500000e+001  6.500000e+001
      vertex  1.631289e+002 -4.375736e+001  6.500000e+001
      vertex  1.631289e+002 -1.500000e+001  6.500000e+001
    endloop
  endfacet
  facet normal  0.000000e+000  0.000000e+000 -1.000000e+000
    outer loop
      vertex  1.661289e+002 -4.500000e+001  6.500000e+001
      vertex  1.631289e+002 -1.500000e+001  6.500000e+001
      vertex  1.651289e+002 -1.300000e+001  6.500000e+001
    endloop
  endfacet
  facet normal  0.000000e+000  0.000000e+000 -1.000000e+000
    outer loop
      vertex  1.661289e+002 -4.500000e+001  6.500000e+001
      vertex  1.651289e+002 -1.300000e+001  6.500000e+001
      vertex  1.651289e+002 -3.872983e+000  6.500000e+001
    endloop
  endfacet
  facet normal  0.000000e+000  0.000000e+000 -1.000000e+000
    outer loop
      vertex  1.661289e+002 -4.500000e+001  6.500000e+001
      vertex  1.651289e+002 -3.872983e+000  6.500000e+001
      vertex  1.661289e+002 -1.500000e+001  6.500000e+001
    endloop
  endfacet
  facet normal  0.000000e+000  0.000000e+000 -1.000000e+000
    outer loop
      vertex  1.631289e+002 -1.500000e+001  6.500000e+001
      vertex  1.601289e+002 -1.500000e+001  6.500000e+001
      vertex  1.651289e+002 -1.300000e+001  6.500000e+001
    endloop
  endfacet
  facet normal  -0.000000e+000  0.000000e+000 -1.000000e+000
    outer loop
      vertex  1.651289e+002 -1.300000e+001  6.500000e+001
      vertex  1.601289e+002 -1.500000e+001  6.500000e+001
      vertex  1.601289e+002 -1.300000e+001  6.500000e+001
    endloop
  endfacet
  facet normal  0.000000e+000  0.000000e+000 -1.000000e+000
    outer loop
      vertex  1.661289e+002 -1.500000e+001  6.500000e+001
      vertex  1.651289e+002 -3.872983e+000  6.500000e+001
      vertex  1.671289e+002 -1.500000e+001  6.500000e+001
    endloop
  endfacet
  facet normal  0.000000e+000  0.000000e+000 -1.000000e+000
    outer loop
      vertex  1.671289e+002 -1.500000e+001  6.500000e+001
      vertex  1.651289e+002 -3.872983e+000  6.500000e+001
      vertex  1.671289e+002 -3.872983e+000  6.500000e+001
    endloop
  endfacet
  facet normal  0.000000e+000  0.000000e+000 -1.000000e+000
    outer loop
      vertex -2.200521e+001 -6.000000e+001  6.500000e+001
      vertex -2.200521e+001 -5.700000e+001  6.500000e+001
      vertex  1.511289e+002 -6.000000e+001  6.500000e+001
    endloop
  endfacet
  facet normal  0.000000e+000  0.000000e+000 -1.000000e+000
    outer loop
      vertex  1.511289e+002 -6.000000e+001  6.500000e+001
      vertex -2.200521e+001 -5.700000e+001  6.500000e+001
      vertex  1.498863e+002 -5.700000e+001  6.500000e+001
    endloop
  endfacet
  facet normal  -0.000000e+000  0.000000e+000 -1.000000e+000
    outer loop
      vertex -2.200521e+001  6.000000e+001  6.500000e+001
      vertex  1.511289e+002  6.000000e+001  6.500000e+001
      vertex -2.200521e+001  5.700000e+001  6.500000e+001
    endloop
  endfacet
  facet normal  0.000000e+000  0.000000e+000 -1.000000e+000
    outer loop
      vertex -2.200521e+001  5.700000e+001  6.500000e+001
      vertex  1.511289e+002  6.000000e+001  6.500000e+001
      vertex  1.498863e+002  5.700000e+001  6.500000e+001
    endloop
  endfacet
  facet normal  0.000000e+000  0.000000e+000 -1.000000e+000
    outer loop
      vertex  1.511289e+002  6.000000e+001  6.500000e+001
      vertex  1.661289e+002  4.500000e+001  6.500000e+001
      vertex  1.498863e+002  5.700000e+001  6.500000e+001
    endloop
  endfacet
  facet normal  0.000000e+000  0.000000e+000 -1.000000e+000
    outer loop
      vertex  1.498863e+002  5.700000e+001  6.500000e+001
      vertex  1.661289e+002  4.500000e+001  6.500000e+001
      vertex  1.631289e+002  4.375736e+001  6.500000e+001
    endloop
  endfacet
  facet normal  0.000000e+000  0.000000e+000 -1.000000e+000
    outer loop
      vertex  1.601289e+002  1.300000e+001  6.500000e+001
      vertex  1.601289e+002  1.500000e+001  6.500000e+001
      vertex  1.651289e+002  1.300000e+001  6.500000e+001
    endloop
  endfacet
  facet normal  0.000000e+000  0.000000e+000 -1.000000e+000
    outer loop
      vertex  1.651289e+002  1.300000e+001  6.500000e+001
      vertex  1.601289e+002  1.500000e+001  6.500000e+001
      vertex  1.631289e+002  1.500000e+001  6.500000e+001
    endloop
  endfacet
  facet normal  0.000000e+000  0.000000e+000 -9.999999e-001
    outer loop
      vertex  1.661289e+002  4.500000e+001  6.500000e+001
      vertex  1.631289e+002  1.500000e+001  6.500000e+001
      vertex  1.631289e+002  4.375736e+001  6.500000e+001
    endloop
  endfacet
  facet normal  0.000000e+000  0.000000e+000 -1.000000e+000
    outer loop
      vertex  1.631289e+002  1.500000e+001  6.500000e+001
      vertex  1.661289e+002  4.500000e+001  6.500000e+001
      vertex  1.651289e+002  1.300000e+001  6.500000e+001
    endloop
  endfacet
  facet normal  0.000000e+000  0.000000e+000 -1.000000e+000
    outer loop
      vertex  1.651289e+002  1.300000e+001  6.500000e+001
      vertex  1.661289e+002  4.500000e+001  6.500000e+001
      vertex  1.661289e+002  1.500000e+001  6.500000e+001
    endloop
  endfacet
  facet normal  0.000000e+000  0.000000e+000 -1.000000e+000
    outer loop
      vertex  1.651289e+002  1.300000e+001  6.500000e+001
      vertex  1.661289e+002  1.500000e+001  6.500000e+001
      vertex  1.651289e+002  3.872983e+000  6.500000e+001
    endloop
  endfacet
  facet normal  0.000000e+000  0.000000e+000 -1.000000e+000
    outer loop
      vertex  1.651289e+002  3.872983e+000  6.500000e+001
      vertex  1.661289e+002  1.500000e+001  6.500000e+001
      vertex  1.671289e+002  1.500000e+001  6.500000e+001
    endloop
  endfacet
  facet normal  0.000000e+000  -0.000000e+000 -1.000000e+000
    outer loop
      vertex  1.651289e+002  3.872983e+000  6.500000e+001
      vertex  1.671289e+002  1.500000e+001  6.500000e+001
      vertex  1.671289e+002  3.872983e+000  6.500000e+001
    endloop
  endfacet
  facet normal -1.000000e+000  -0.000000e+000  0.000000e+000
    outer loop
      vertex -2.200521e+001  4.500000e+001  1.300000e+002
      vertex -2.200521e+001  6.000000e+001  1.150000e+002
      vertex -2.200521e+001  5.700000e+001  1.137574e+002
    endloop
  endfacet
  facet normal -1.000000e+000  0.000000e+000  0.000000e+000
    outer loop
      vertex -2.200521e+001  4.500000e+001  1.300000e+002
      vertex -2.200521e+001  5.700000e+001  1.137574e+002
      vertex -2.200521e+001  4.375736e+001  1.270000e+002
    endloop
  endfacet
  facet normal -1.000000e+000  0.000000e+000  0.000000e+000
    outer loop
      vertex -2.200521e+001  4.500000e+001  1.300000e+002
      vertex -2.200521e+001  4.375736e+001  1.270000e+002
      vertex -2.200521e+001 -4.375736e+001  1.270000e+002
    endloop
  endfacet
  facet normal -1.000000e+000  0.000000e+000  0.000000e+000
    outer loop
      vertex -2.200521e+001  4.500000e+001  1.300000e+002
      vertex -2.200521e+001 -4.375736e+001  1.270000e+002
      vertex -2.200521e+001 -4.500000e+001  1.300000e+002
    endloop
  endfacet
  facet normal -1.000000e+000  0.000000e+000  0.000000e+000
    outer loop
      vertex -2.200521e+001  5.700000e+001  6.500000e+001
      vertex -2.200521e+001  5.700000e+001  1.137574e+002
      vertex -2.200521e+001  6.000000e+001  6.500000e+001
    endloop
  endfacet
  facet normal -1.000000e+000  0.000000e+000  0.000000e+000
    outer loop
      vertex -2.200521e+001  6.000000e+001  6.500000e+001
      vertex -2.200521e+001  5.700000e+001  1.137574e+002
      vertex -2.200521e+001  6.000000e+001  1.150000e+002
    endloop
  endfacet
  facet normal -1.000000e+000  -0.000000e+000  0.000000e+000
    outer loop
      vertex -2.200521e+001 -4.500000e+001  1.300000e+002
      vertex -2.200521e+001 -4.375736e+001  1.270000e+002
      vertex -2.200521e+001 -6.000000e+001  1.150000e+002
    endloop
  endfacet
  facet normal -1.000000e+000  0.000000e+000  0.000000e+000
    outer loop
      vertex -2.200521e+001 -6.000000e+001  1.150000e+002
      vertex -2.200521e+001 -4.375736e+001  1.270000e+002
      vertex -2.200521e+001 -5.700000e+001  1.137574e+002
    endloop
  endfacet
  facet normal -1.000000e+000  -0.000000e+000  0.000000e+000
    outer loop
      vertex -2.200521e+001 -6.000000e+001  1.150000e+002
      vertex -2.200521e+001 -5.700000e+001  1.137574e+002
      vertex -2.200521e+001 -6.000000e+001  6.500000e+001
    endloop
  endfacet
  facet normal -1.000000e+000  0.000000e+000  0.000000e+000
    outer loop
      vertex -2.200521e+001 -6.000000e+001  6.500000e+001
      vertex -2.200521e+001 -5.700000e+001  1.137574e+002
      vertex -2.200521e+001 -5.700000e+001  6.500000e+001
    endloop
  endfacet
  facet normal  0.000000e+000 -1.000000e+000  0.000000e+000
    outer loop
      vertex  1.661289e+002 -1.500000e+001  8.100000e+001
      vertex  1.661289e+002 -1.500000e+001  6.500000e+001
      vertex  1.671289e+002 -1.500000e+001  8.100000e+001
    endloop
  endfacet
  facet normal  0.000000e+000 -1.000000e+000  -0.000000e+000
    outer loop
      vertex  1.671289e+002 -1.500000e+001  8.100000e+001
      vertex  1.661289e+002 -1.500000e+001  6.500000e+001
      vertex  1.671289e+002 -1.500000e+001  6.500000e+001
    endloop
  endfacet
  facet normal  0.000000e+000  1.000000e+000  0.000000e+000
    outer loop
      vertex  1.661289e+002  1.500000e+001  8.100000e+001
      vertex  1.671289e+002  1.500000e+001  8.100000e+001
      vertex  1.661289e+002  1.500000e+001  6.500000e+001
    endloop
  endfacet
  facet normal  0.000000e+000  1.000000e+000  0.000000e+000
    outer loop
      vertex  1.661289e+002  1.500000e+001  6.500000e+001
      vertex  1.671289e+002  1.500000e+001  8.100000e+001
      vertex  1.671289e+002  1.500000e+001  6.500000e+001
    endloop
  endfacet
  facet normal  1.000000e+000  0.000000e+000  0.000000e+000
    outer loop
      vertex  1.661289e+002  4.500000e+001  8.900000e+001
      vertex  1.661289e+002  1.500000e+001  6.500000e+001
      vertex  1.661289e+002  4.500000e+001  6.500000e+001
    endloop
  endfacet
  facet normal  1.000000e+000  0.000000e+000  0.000000e+000
    outer loop
      vertex  1.661289e+002  1.500000e+001  6.500000e+001
      vertex  1.661289e+002  4.500000e+001  8.900000e+001
      vertex  1.661289e+002  1.500000e+001  8.100000e+001
    endloop
  endfacet
  facet normal  1.000000e+000  0.000000e+000  -0.000000e+000
    outer loop
      vertex  1.661289e+002  1.500000e+001  8.100000e+001
      vertex  1.661289e+002  4.500000e+001  8.900000e+001
      vertex  1.661289e+002 -4.500000e+001  8.900000e+001
    endloop
  endfacet
  facet normal  1.000000e+000  0.000000e+000  0.000000e+000
    outer loop
      vertex  1.661289e+002  1.500000e+001  8.100000e+001
      vertex  1.661289e+002 -4.500000e+001  8.900000e+001
      vertex  1.661289e+002 -1.500000e+001  8.100000e+001
    endloop
  endfacet
  facet normal  1.000000e+000  0.000000e+000  0.000000e+000
    outer loop
      vertex  1.661289e+002 -1.500000e+001  8.100000e+001
      vertex  1.661289e+002 -4.500000e+001  8.900000e+001
      vertex  1.661289e+002 -4.500000e+001  6.500000e+001
    endloop
  endfacet
  facet normal  1.000000e+000  0.000000e+000  0.000000e+000
    outer loop
      vertex  1.661289e+002 -1.500000e+001  8.100000e+001
      vertex  1.661289e+002 -4.500000e+001  6.500000e+001
      vertex  1.661289e+002 -1.500000e+001  6.500000e+001
    endloop
  endfacet
  facet normal  0.000000e+000  1.000000e+000  0.000000e+000
    outer loop
      vertex  1.601289e+002  1.500000e+001  8.100000e+001
      vertex  1.631289e+002  1.500000e+001  8.100000e+001
      vertex  1.601289e+002  1.500000e+001  6.500000e+001
    endloop
  endfacet
  facet normal  0.000000e+000  1.000000e+000  0.000000e+000
    outer loop
      vertex  1.601289e+002  1.500000e+001  6.500000e+001
      vertex  1.631289e+002  1.500000e+001  8.100000e+001
      vertex  1.631289e+002  1.500000e+001  6.500000e+001
    endloop
  endfacet
  facet normal  0.000000e+000 -1.000000e+000  0.000000e+000
    outer loop
      vertex  1.601289e+002 -1.500000e+001  8.100000e+001
      vertex  1.601289e+002 -1.500000e+001  6.500000e+001
      vertex  1.631289e+002 -1.500000e+001  8.100000e+001
    endloop
  endfacet
  facet normal  0.000000e+000 -1.000000e+000  -0.000000e+000
    outer loop
      vertex  1.631289e+002 -1.500000e+001  8.100000e+001
      vertex  1.601289e+002 -1.500000e+001  6.500000e+001
      vertex  1.631289e+002 -1.500000e+001  6.500000e+001
    endloop
  endfacet
  facet normal  7.071068e-001 -7.071068e-001  0.000000e+000
    outer loop
      vertex  1.661289e+002 -4.500000e+001  6.500000e+001
      vertex  1.661289e+002 -4.500000e+001  8.900000e+001
      vertex  1.511289e+002 -6.000000e+001  6.500000e+001
    endloop
  endfacet
  facet normal  7.071068e-001 -7.071068e-001  0.000000e+000
    outer loop
      vertex  1.511289e+002 -6.000000e+001  6.500000e+001
      vertex  1.661289e+002 -4.500000e+001  8.900000e+001
      vertex  1.511289e+002 -6.000000e+001  7.919335e+001
    endloop
  endfacet
  facet normal  7.071068e-001  7.071068e-001  0.000000e+000
    outer loop
      vertex  1.661289e+002  4.500000e+001  6.500000e+001
      vertex  1.511289e+002  6.000000e+001  6.500000e+001
      vertex  1.661289e+002  4.500000e+001  8.900000e+001
    endloop
  endfacet
  facet normal  7.071068e-001  7.071068e-001  0.000000e+000
    outer loop
      vertex  1.661289e+002  4.500000e+001  8.900000e+001
      vertex  1.511289e+002  6.000000e+001  6.500000e+001
      vertex  1.511289e+002  6.000000e+001  7.919335e+001
    endloop
  endfacet
  facet normal -7.071071e-001 -7.071065e-001  -0.000000e+000
    outer loop
      vertex  1.631289e+002  4.375736e+001  6.500000e+001
      vertex  1.631289e+002  4.375736e+001  8.703867e+001
      vertex  1.498863e+002  5.700000e+001  6.500000e+001
    endloop
  endfacet
  facet normal -7.071071e-001 -7.071065e-001  0.000000e+000
    outer loop
      vertex  1.498863e+002  5.700000e+001  6.500000e+001
      vertex  1.631289e+002  4.375736e+001  8.703867e+001
      vertex  1.498863e+002  5.700000e+001  7.838094e+001
    endloop
  endfacet
  facet normal -7.071071e-001  7.071065e-001  0.000000e+000
    outer loop
      vertex  1.631289e+002 -4.375736e+001  6.500000e+001
      vertex  1.498863e+002 -5.700000e+001  6.500000e+001
      vertex  1.631289e+002 -4.375736e+001  8.703867e+001
    endloop
  endfacet
  facet normal -7.071071e-001  7.071065e-001  0.000000e+000
    outer loop
      vertex  1.631289e+002 -4.375736e+001  8.703867e+001
      vertex  1.498863e+002 -5.700000e+001  6.500000e+001
      vertex  1.498863e+002 -5.700000e+001  7.838094e+001
    endloop
  endfacet
  facet normal -1.000000e+000  0.000000e+000  0.000000e+000
    outer loop
      vertex  1.631289e+002  4.375736e+001  6.500000e+001
      vertex  1.631289e+002  1.500000e+001  6.500000e+001
      vertex  1.631289e+002  4.375736e+001  8.703867e+001
    endloop
  endfacet
  facet normal -1.000000e+000  0.000000e+000  0.000000e+000
    outer loop
      vertex  1.631289e+002  4.375736e+001  8.703867e+001
      vertex  1.631289e+002  1.500000e+001  6.500000e+001
      vertex  1.631289e+002  1.500000e+001  8.100000e+001
    endloop
  endfacet
  facet normal -1.000000e+000  0.000000e+000  0.000000e+000
    outer loop
      vertex  1.631289e+002  4.375736e+001  8.703867e+001
      vertex  1.631289e+002  1.500000e+001  8.100000e+001
      vertex  1.631289e+002 -4.375736e+001  8.703867e+001
    endloop
  endfacet
  facet normal -1.000000e+000  0.000000e+000  0.000000e+000
    outer loop
      vertex  1.631289e+002 -4.375736e+001  8.703867e+001
      vertex  1.631289e+002  1.500000e+001  8.100000e+001
      vertex  1.631289e+002 -1.500000e+001  8.100000e+001
    endloop
  endfacet
  facet normal -1.000000e+000  -0.000000e+000  0.000000e+000
    outer loop
      vertex  1.631289e+002 -4.375736e+001  8.703867e+001
      vertex  1.631289e+002 -1.500000e+001  8.100000e+001
      vertex  1.631289e+002 -4.375736e+001  6.500000e+001
    endloop
  endfacet
  facet normal -1.000000e+000  0.000000e+000  0.000000e+000
    outer loop
      vertex  1.631289e+002 -4.375736e+001  6.500000e+001
      vertex  1.631289e+002 -1.500000e+001  8.100000e+001
      vertex  1.631289e+002 -1.500000e+001  6.500000e+001
    endloop
  endfacet
  facet normal  0.000000e+000  1.000000e+000  0.000000e+000
    outer loop
      vertex  1.601289e+002 -1.300000e+001  6.500000e+001
      vertex  1.601289e+002 -1.300000e+001  7.900000e+001
      vertex  1.651289e+002 -1.300000e+001  6.500000e+001
    endloop
  endfacet
  facet normal  0.000000e+000  1.000000e+000  -0.000000e+000
    outer loop
      vertex  1.651289e+002 -1.300000e+001  6.500000e+001
      vertex  1.601289e+002 -1.300000e+001  7.900000e+001
      vertex  1.651289e+002 -1.300000e+001  7.900000e+001
    endloop
  endfacet
  facet normal  0.000000e+000 -1.000000e+000  0.000000e+000
    outer loop
      vertex  1.601289e+002  1.300000e+001  7.900000e+001
      vertex  1.601289e+002  1.300000e+001  6.500000e+001
      vertex  1.651289e+002  1.300000e+001  7.900000e+001
    endloop
  endfacet
  facet normal  0.000000e+000 -1.000000e+000  -0.000000e+000
    outer loop
      vertex  1.651289e+002  1.300000e+001  7.900000e+001
      vertex  1.601289e+002  1.300000e+001  6.500000e+001
      vertex  1.651289e+002  1.300000e+001  6.500000e+001
    endloop
  endfacet
  facet normal -1.000000e+000  0.000000e+000  0.000000e+000
    outer loop
      vertex  1.601289e+002 -1.500000e+001  8.100000e+001
      vertex  1.601289e+002 -1.300000e+001  6.500000e+001
      vertex  1.601289e+002 -1.500000e+001  6.500000e+001
    endloop
  endfacet
  facet normal -1.000000e+000  0.000000e+000  0.000000e+000
    outer loop
      vertex  1.601289e+002 -1.300000e+001  6.500000e+001
      vertex  1.601289e+002 -1.500000e+001  8.100000e+001
      vertex  1.601289e+002 -1.300000e+001  7.900000e+001
    endloop
  endfacet
  facet normal -1.000000e+000  0.000000e+000  0.000000e+000
    outer loop
      vertex  1.601289e+002 -1.300000e+001  7.900000e+001
      vertex  1.601289e+002 -1.500000e+001  8.100000e+001
      vertex  1.601289e+002  1.500000e+001  8.100000e+001
    endloop
  endfacet
  facet normal -1.000000e+000  0.000000e+000  0.000000e+000
    outer loop
      vertex  1.601289e+002 -1.300000e+001  7.900000e+001
      vertex  1.601289e+002  1.500000e+001  8.100000e+001
      vertex  1.601289e+002  1.300000e+001  7.900000e+001
    endloop
  endfacet
  facet normal -1.000000e+000  0.000000e+000  0.000000e+000
    outer loop
      vertex  1.601289e+002  1.300000e+001  7.900000e+001
      vertex  1.601289e+002  1.500000e+001  8.100000e+001
      vertex  1.601289e+002  1.500000e+001  6.500000e+001
    endloop
  endfacet
  facet normal -1.000000e+000  0.000000e+000  0.000000e+000
    outer loop
      vertex  1.601289e+002  1.300000e+001  7.900000e+001
      vertex  1.601289e+002  1.500000e+001  6.500000e+001
      vertex  1.601289e+002  1.300000e+001  6.500000e+001
    endloop
  endfacet
  facet normal -1.000000e+000  0.000000e+000  0.000000e+000
    outer loop
      vertex  1.651289e+002  1.300000e+001  6.500000e+001
      vertex  1.651289e+002  3.872983e+000  6.500000e+001
      vertex  1.651289e+002  4.000000e+000  6.600000e+001
    endloop
  endfacet
  facet normal -1.000000e+000  0.000000e+000  0.000000e+000
    outer loop
      vertex  1.651289e+002  1.300000e+001  6.500000e+001
      vertex  1.651289e+002  4.000000e+000  6.600000e+001
      vertex  1.651289e+002  3.236068e+000  6.835114e+001
    endloop
  endfacet
  facet normal -1.000000e+000  0.000000e+000  0.000000e+000
    outer loop
      vertex  1.651289e+002  1.300000e+001  6.500000e+001
      vertex  1.651289e+002  3.236068e+000  6.835114e+001
      vertex  1.651289e+002  1.236068e+000  6.980423e+001
    endloop
  endfacet
  facet normal -1.000000e+000  0.000000e+000  0.000000e+000
    outer loop
      vertex  1.651289e+002  1.300000e+001  6.500000e+001
      vertex  1.651289e+002  1.236068e+000  6.980423e+001
      vertex  1.651289e+002  1.300000e+001  7.900000e+001
    endloop
  endfacet
  facet normal -1.000000e+000  0.000000e+000  0.000000e+000
    outer loop
      vertex  1.651289e+002 -1.300000e+001  6.500000e+001
      vertex  1.651289e+002 -1.300000e+001  7.900000e+001
      vertex  1.651289e+002 -1.236068e+000  6.980423e+001
    endloop
  endfacet
  facet normal -1.000000e+000  0.000000e+000  0.000000e+000
    outer loop
      vertex  1.651289e+002 -1.300000e+001  6.500000e+001
      vertex  1.651289e+002 -1.236068e+000  6.980423e+001
      vertex  1.651289e+002 -3.236068e+000  6.835114e+001
    endloop
  endfacet
  facet normal -1.000000e+000  0.000000e+000  0.000000e+000
    outer loop
      vertex  1.651289e+002 -1.300000e+001  6.500000e+001
      vertex  1.651289e+002 -3.236068e+000  6.835114e+001
      vertex  1.651289e+002 -4.000000e+000  6.600000e+001
    endloop
  endfacet
  facet normal -1.000000e+000  0.000000e+000  -0.000000e+000
    outer loop
      vertex  1.651289e+002 -1.300000e+001  6.500000e+001
      vertex  1.651289e+002 -4.000000e+000  6.600000e+001
      vertex  1.651289e+002 -3.872983e+000  6.500000e+001
    endloop
  endfacet
  facet normal -9.999999e-001  0.000000e+000  0.000000e+000
    outer loop
      vertex  1.651289e+002  1.236068e+000  6.980423e+001
      vertex  1.651289e+002 -1.236068e+000  6.980423e+001
      vertex  1.651289e+002  1.300000e+001  7.900000e+001
    endloop
  endfacet
  facet normal -1.000000e+000  -0.000000e+000  0.000000e+000
    outer loop
      vertex  1.651289e+002  1.300000e+001  7.900000e+001
      vertex  1.651289e+002 -1.236068e+000  6.980423e+001
      vertex  1.651289e+002 -1.300000e+001  7.900000e+001
    endloop
  endfacet
  facet normal  1.000000e+000  0.000000e+000  0.000000e+000
    outer loop
      vertex  1.671289e+002  1.500000e+001  8.100000e+001
      vertex  1.671289e+002 -1.236068e+000  6.980423e+001
      vertex  1.671289e+002  1.236068e+000  6.980423e+001
    endloop
  endfacet
  facet normal  1.000000e+000  0.000000e+000  0.000000e+000
    outer loop
      vertex  1.671289e+002 -1.500000e+001  6.500000e+001
      vertex  1.671289e+002 -3.872983e+000  6.500000e+001
      vertex  1.671289e+002 -4.000000e+000  6.600000e+001
    endloop
  endfacet
  facet normal  1.000000e+000  0.000000e+000  -0.000000e+000
    outer loop
      vertex  1.671289e+002 -1.500000e+001  6.500000e+001
      vertex  1.671289e+002 -4.000000e+000  6.600000e+001
      vertex  1.671289e+002 -3.236068e+000  6.835114e+001
    endloop
  endfacet
  facet normal  1.000000e+000  0.000000e+000  -0.000000e+000
    outer loop
      vertex  1.671289e+002 -1.500000e+001  6.500000e+001
      vertex  1.671289e+002 -3.236068e+000  6.835114e+001
      vertex  1.671289e+002 -1.236068e+000  6.980423e+001
    endloop
  endfacet
  facet normal  1.000000e+000  0.000000e+000  -0.000000e+000
    outer loop
      vertex  1.671289e+002 -1.500000e+001  6.500000e+001
      vertex  1.671289e+002 -1.236068e+000  6.980423e+001
      vertex  1.671289e+002  1.500000e+001  8.100000e+001
    endloop
  endfacet
  facet normal  1.000000e+000  0.000000e+000  0.000000e+000
    outer loop
      vertex  1.671289e+002 -1.500000e+001  6.500000e+001
      vertex  1.671289e+002  1.500000e+001  8.100000e+001
      vertex  1.671289e+002 -1.500000e+001  8.100000e+001
    endloop
  endfacet
  facet normal  1.000000e+000  0.000000e+000  0.000000e+000
    outer loop
      vertex  1.671289e+002  1.500000e+001  6.500000e+001
      vertex  1.671289e+002  1.500000e+001  8.100000e+001
      vertex  1.671289e+002  1.236068e+000  6.980423e+001
    endloop
  endfacet
  facet normal  1.000000e+000  0.000000e+000  0.000000e+000
    outer loop
      vertex  1.671289e+002  1.500000e+001  6.500000e+001
      vertex  1.671289e+002  1.236068e+000  6.980423e+001
      vertex  1.671289e+002  3.236068e+000  6.835114e+001
    endloop
  endfacet
  facet normal  1.000000e+000  0.000000e+000  0.000000e+000
    outer loop
      vertex  1.671289e+002  1.500000e+001  6.500000e+001
      vertex  1.671289e+002  3.236068e+000  6.835114e+001
      vertex  1.671289e+002  4.000000e+000  6.600000e+001
    endloop
  endfacet
  facet normal  1.000000e+000  0.000000e+000  0.000000e+000
    outer loop
      vertex  1.671289e+002  1.500000e+001  6.500000e+001
      vertex  1.671289e+002  4.000000e+000  6.600000e+001
      vertex  1.671289e+002  3.872983e+000  6.500000e+001
    endloop
  endfacet
  facet normal  0.000000e+000 -9.920297e-001  1.260042e-001
    outer loop
      vertex  1.671289e+002  3.872983e+000  6.500000e+001
      vertex  1.671289e+002  4.000000e+000  6.600000e+001
      vertex  1.651289e+002  3.872983e+000  6.500000e+001
    endloop
  endfacet
  facet normal  0.000000e+000 -9.920297e-001  1.260042e-001
    outer loop
      vertex  1.651289e+002  3.872983e+000  6.500000e+001
      vertex  1.671289e+002  4.000000e+000  6.600000e+001
      vertex  1.651289e+002  4.000000e+000  6.600000e+001
    endloop
  endfacet
  facet normal  0.000000e+000  9.920297e-001  1.260042e-001
    outer loop
      vertex  1.671289e+002 -4.000000e+000  6.600000e+001
      vertex  1.671289e+002 -3.872983e+000  6.500000e+001
      vertex  1.651289e+002 -4.000000e+000  6.600000e+001
    endloop
  endfacet
  facet normal  0.000000e+000  9.920297e-001  1.260042e-001
    outer loop
      vertex  1.651289e+002 -4.000000e+000  6.600000e+001
      vertex  1.671289e+002 -3.872983e+000  6.500000e+001
      vertex  1.651289e+002 -3.872983e+000  6.500000e+001
    endloop
  endfacet
  facet normal  0.000000e+000  5.877857e-001 -8.090166e-001
    outer loop
      vertex  1.651289e+002 -1.236068e+000  6.980423e+001
      vertex  1.671289e+002 -3.236068e+000  6.835114e+001
      vertex  1.651289e+002 -3.236068e+000  6.835114e+001
    endloop
  endfacet
  facet normal  0.000000e+000  9.510566e-001 -3.090168e-001
    outer loop
      vertex  1.651289e+002 -3.236068e+000  6.835114e+001
      vertex  1.671289e+002 -3.236068e+000  6.835114e+001
      vertex  1.671289e+002 -4.000000e+000  6.600000e+001
    endloop
  endfacet
  facet normal  0.000000e+000  9.510566e-001 -3.090168e-001
    outer loop
      vertex  1.651289e+002 -3.236068e+000  6.835114e+001
      vertex  1.671289e+002 -4.000000e+000  6.600000e+001
      vertex  1.651289e+002 -4.000000e+000  6.600000e+001
    endloop
  endfacet
  facet normal  0.000000e+000  5.877857e-001 -8.090166e-001
    outer loop
      vertex  1.671289e+002 -3.236068e+000  6.835114e+001
      vertex  1.651289e+002 -1.236068e+000  6.980423e+001
      vertex  1.671289e+002 -1.236068e+000  6.980423e+001
    endloop
  endfacet
  facet normal  0.000000e+000  0.000000e+000 -1.000000e+000
    outer loop
      vertex  1.671289e+002 -1.236068e+000  6.980423e+001
      vertex  1.651289e+002 -1.236068e+000  6.980423e+001
      vertex  1.651289e+002  1.236068e+000  6.980423e+001
    endloop
  endfacet
  facet normal  0.000000e+000  0.000000e+000 -1.000000e+000
    outer loop
      vertex  1.671289e+002 -1.236068e+000  6.980423e+001
      vertex  1.651289e+002  1.236068e+000  6.980423e+001
      vertex  1.671289e+002  1.236068e+000  6.980423e+001
    endloop
  endfacet
  facet normal  -0.000000e+000 -5.877857e-001 -8.090166e-001
    outer loop
      vertex  1.671289e+002  1.236068e+000  6.980423e+001
      vertex  1.651289e+002  1.236068e+000  6.980423e+001
      vertex  1.651289e+002  3.236068e+000  6.835114e+001
    endloop
  endfacet
  facet normal  0.000000e+000 -5.877857e-001 -8.090166e-001
    outer loop
      vertex  1.671289e+002  1.236068e+000  6.980423e+001
      vertex  1.651289e+002  3.236068e+000  6.835114e+001
      vertex  1.671289e+002  3.236068e+000  6.835114e+001
    endloop
  endfacet
  facet normal  -0.000000e+000 -9.510566e-001 -3.090168e-001
    outer loop
      vertex  1.671289e+002  3.236068e+000  6.835114e+001
      vertex  1.651289e+002  3.236068e+000  6.835114e+001
      vertex  1.651289e+002  4.000000e+000  6.600000e+001
    endloop
  endfacet
  facet normal  0.000000e+000 -9.510566e-001 -3.090168e-001
    outer loop
      vertex  1.671289e+002  3.236068e+000  6.835114e+001
      vertex  1.651289e+002  4.000000e+000  6.600000e+001
      vertex  1.671289e+002  4.000000e+000  6.600000e+001
    endloop
  endfacet
  facet normal  0.000000e+000  0.000000e+000 -1.000000e+000
    outer loop
      vertex  1.601289e+002 -1.300000e+001  7.900000e+001
      vertex  1.601289e+002  1.300000e+001  7.900000e+001
      vertex  1.651289e+002 -1.300000e+001  7.900000e+001
    endloop
  endfacet
  facet normal  0.000000e+000  0.000000e+000 -1.000000e+000
    outer loop
      vertex  1.651289e+002 -1.300000e+001  7.900000e+001
      vertex  1.601289e+002  1.300000e+001  7.900000e+001
      vertex  1.651289e+002  1.300000e+001  7.900000e+001
    endloop
  endfacet
  facet normal  0.000000e+000  0.000000e+000  1.000000e+000
    outer loop
      vertex  1.661289e+002 -1.500000e+001  8.100000e+001
      vertex  1.671289e+002 -1.500000e+001  8.100000e+001
      vertex  1.661289e+002  1.500000e+001  8.100000e+001
    endloop
  endfacet
  facet normal  -0.000000e+000  0.000000e+000  1.000000e+000
    outer loop
      vertex  1.661289e+002  1.500000e+001  8.100000e+001
      vertex  1.671289e+002 -1.500000e+001  8.100000e+001
      vertex  1.671289e+002  1.500000e+001  8.100000e+001
    endloop
  endfacet
  facet normal  0.000000e+000  0.000000e+000  1.000000e+000
    outer loop
      vertex  1.601289e+002 -1.500000e+001  8.100000e+001
      vertex  1.631289e+002 -1.500000e+001  8.100000e+001
      vertex  1.601289e+002  1.500000e+001  8.100000e+001
    endloop
  endfacet
  facet normal  -0.000000e+000  0.000000e+000  1.000000e+000
    outer loop
      vertex  1.601289e+002  1.500000e+001  8.100000e+001
      vertex  1.631289e+002 -1.500000e+001  8.100000e+001
      vertex  1.631289e+002  1.500000e+001  8.100000e+001
    endloop
  endfacet
  facet normal -2.836386e-001  7.071066e-001 -6.477262e-001
    outer loop
      vertex  1.631289e+002 -4.375736e+001  8.703867e+001
      vertex  1.498863e+002 -5.700000e+001  7.838094e+001
      vertex  7.187194e+001 -4.375736e+001  1.270000e+002
    endloop
  endfacet
  facet normal -2.836386e-001  7.071068e-001 -6.477262e-001
    outer loop
      vertex  7.187194e+001 -4.375736e+001  1.270000e+002
      vertex  1.498863e+002 -5.700000e+001  7.838094e+001
      vertex  6.909955e+001 -5.700000e+001  1.137574e+002
    endloop
  endfacet
  facet normal -4.011255e-001  0.000000e+000 -9.160231e-001
    outer loop
      vertex  1.631289e+002  4.375736e+001  8.703867e+001
      vertex  1.631289e+002 -4.375736e+001  8.703867e+001
      vertex  7.187194e+001  4.375736e+001  1.270000e+002
    endloop
  endfacet
  facet normal -4.011255e-001  -0.000000e+000 -9.160231e-001
    outer loop
      vertex  7.187194e+001  4.375736e+001  1.270000e+002
      vertex  1.631289e+002 -4.375736e+001  8.703867e+001
      vertex  7.187194e+001 -4.375736e+001  1.270000e+002
    endloop
  endfacet
  facet normal -2.836386e-001 -7.071066e-001 -6.477262e-001
    outer loop
      vertex  1.631289e+002  4.375736e+001  8.703867e+001
      vertex  7.187194e+001  4.375736e+001  1.270000e+002
      vertex  1.498863e+002  5.700000e+001  7.838094e+001
    endloop
  endfacet
  facet normal -2.836386e-001 -7.071067e-001 -6.477263e-001
    outer loop
      vertex  1.498863e+002  5.700000e+001  7.838094e+001
      vertex  7.187194e+001  4.375736e+001  1.270000e+002
      vertex  6.909955e+001  5.700000e+001  1.137574e+002
    endloop
  endfacet
  facet normal  4.011256e-001  0.000000e+000  9.160231e-001
    outer loop
      vertex  1.661289e+002 -4.500000e+001  8.900000e+001
      vertex  1.661289e+002  4.500000e+001  8.900000e+001
      vertex  7.250000e+001 -4.500000e+001  1.300000e+002
    endloop
  endfacet
  facet normal  4.011256e-001  -0.000000e+000  9.160231e-001
    outer loop
      vertex  7.250000e+001 -4.500000e+001  1.300000e+002
      vertex  1.661289e+002  4.500000e+001  8.900000e+001
      vertex  7.250000e+001  4.500000e+001  1.300000e+002
    endloop
  endfacet
  facet normal  2.836386e-001  7.071068e-001  6.477261e-001
    outer loop
      vertex  1.661289e+002  4.500000e+001  8.900000e+001
      vertex  1.511289e+002  6.000000e+001  7.919335e+001
      vertex  7.250000e+001  4.500000e+001  1.300000e+002
    endloop
  endfacet
  facet normal  2.836386e-001  7.071068e-001  6.477261e-001
    outer loop
      vertex  7.250000e+001  4.500000e+001  1.300000e+002
      vertex  1.511289e+002  6.000000e+001  7.919335e+001
      vertex  6.935970e+001  6.000000e+001  1.150000e+002
    endloop
  endfacet
  facet normal  2.836386e-001 -7.071067e-001  6.477262e-001
    outer loop
      vertex  1.661289e+002 -4.500000e+001  8.900000e+001
      vertex  7.250000e+001 -4.500000e+001  1.300000e+002
      vertex  1.511289e+002 -6.000000e+001  7.919335e+001
    endloop
  endfacet
  facet normal  2.836386e-001 -7.071068e-001  6.477262e-001
    outer loop
      vertex  1.511289e+002 -6.000000e+001  7.919335e+001
      vertex  7.250000e+001 -4.500000e+001  1.300000e+002
      vertex  6.935970e+001 -6.000000e+001  1.150000e+002
    endloop
  endfacet
endsolid CATIA STL
